<?xml version="1.0" encoding="UTF-8"?>
<svg xmlns="http://www.w3.org/2000/svg" xmlns:xlink="http://www.w3.org/1999/xlink" version="1.1" x="0px" y="0px" viewBox="0 0 3000 2000" style="enable-background:new 0 0 3000 2000;" xml:space="preserve">
<style type="text/css">
	.st0{fill:#F6F9FF;}
	.st1{fill:#D4DFFF;}
	.st2{fill:#1C056D;}
	.st3{fill:#1B3D9E;}
	.st4{clip-path:url(#SVGID_00000101062835409545713590000009911599197123795081_);fill:#1C056D;}
	.st5{fill:#6880E4;}
	
		.st6{opacity:0.46;clip-path:url(#SVGID_00000041272539885490718650000001416087513477577895_);fill:#6880E4;enable-background:new    ;}
	
		.st7{opacity:0.46;clip-path:url(#SVGID_00000000202865805254319910000010809743582088725133_);fill:#6880E4;enable-background:new    ;}
	
		.st8{opacity:0.46;clip-path:url(#SVGID_00000153677825115281784330000002360277342631561645_);fill:#6880E4;enable-background:new    ;}
	.st9{fill:#FFFFFF;}
	.st10{opacity:0.54;fill:#1B3D9E;enable-background:new    ;}
	.st11{fill:#FC476A;}
	.st12{clip-path:url(#SVGID_00000119829464410124043520000016167008674776229013_);fill:#1C056D;}
	.st13{clip-path:url(#SVGID_00000000917242985375865920000000934173501596402356_);fill:#D40221;}
	.st14{clip-path:url(#SVGID_00000003799498498355169520000000483607147250172812_);fill:#D4DFFF;}
	
		.st15{opacity:0.46;clip-path:url(#SVGID_00000134967572340043943770000004558206827038528438_);fill:#6880E4;enable-background:new    ;}
	.st16{clip-path:url(#SVGID_00000083069653463751081080000014384020567609397638_);fill:#6880E4;}
	.st17{clip-path:url(#SVGID_00000071522857699740788770000011904111191285099419_);fill:#6880E4;}
	.st18{clip-path:url(#SVGID_00000062160618488115263290000014057020913803934613_);fill:#6880E4;}
	.st19{clip-path:url(#SVGID_00000016762561107683672140000008236969473193975995_);fill:#6880E4;}
	.st20{clip-path:url(#SVGID_00000004547690086175675690000003696430774540446365_);fill:#6880E4;}
	.st21{clip-path:url(#SVGID_00000104681014935476618970000004676174514567587968_);fill:#6880E4;}
	.st22{clip-path:url(#SVGID_00000073692397045497923670000013940524321556202417_);fill:#6880E4;}
	.st23{clip-path:url(#SVGID_00000006695717318519702840000008177448976409170308_);fill:#6880E4;}
	.st24{clip-path:url(#SVGID_00000043421097325719466030000018425943488514958479_);fill:#6880E4;}
	.st25{clip-path:url(#SVGID_00000087402047580458811130000012586526609059440267_);fill:#6880E4;}
	.st26{clip-path:url(#SVGID_00000094601686524020699470000009437590836628568250_);fill:#6880E4;}
	.st27{clip-path:url(#SVGID_00000107580354129958749110000012932908750115229328_);fill:#6880E4;}
	.st28{clip-path:url(#SVGID_00000170250503669063211020000000331301404769365949_);fill:#6880E4;}
	.st29{clip-path:url(#SVGID_00000103223344843117973720000011740260820972833972_);fill:#6880E4;}
	.st30{clip-path:url(#SVGID_00000005231164987413271460000011931133299541909932_);fill:#6880E4;}
	.st31{clip-path:url(#SVGID_00000021099742487917556680000010731014409431400373_);fill:#6880E4;}
	
		.st32{opacity:0.17;clip-path:url(#SVGID_00000170956913830288860650000006370516784974647215_);fill:#6880E4;enable-background:new    ;}
	.st33{fill:#FE8E9C;}
	.st34{clip-path:url(#SVGID_00000029032293755011206100000006666649708098461321_);fill:#E57492;}
	.st35{fill:#E57492;}
	.st36{clip-path:url(#SVGID_00000044869742017199982380000001199096318367719577_);fill:#1C056D;}
	.st37{clip-path:url(#SVGID_00000066513758005017327930000003455243692539886744_);fill:#E57492;}
	.st38{fill:#D40221;}
	.st39{clip-path:url(#SVGID_00000127017868820083077620000002013864462389095555_);fill:#1C056D;}
	.st40{clip-path:url(#SVGID_00000130615314353511934630000006162061092564624046_);fill:#1C056D;}
	.st41{clip-path:url(#SVGID_00000064341263844681716340000010024526025912846989_);fill:#1C056D;}
	.st42{clip-path:url(#SVGID_00000011009273705313058270000000828097200484706467_);fill:#1C056D;}
	.st43{clip-path:url(#SVGID_00000089539901635428264730000009317958418167025083_);fill:#1C056D;}
	.st44{clip-path:url(#SVGID_00000079447001088242690320000011446406793436774549_);fill:#1C056D;}
	.st45{clip-path:url(#SVGID_00000067949774026024920190000017572808096802635412_);fill:#1C056D;}
	.st46{clip-path:url(#SVGID_00000159435766779790433930000004073877487891699630_);fill:#1C056D;}
	.st47{clip-path:url(#SVGID_00000182487929425847095110000005403956796459289521_);fill:#1C056D;}
</style>
<g id="Layer_2">
</g>
<g id="Layer_1">
	<path class="st0" d="M1031.6,1601.6c-108.8-32.3-213.4-74.3-304.1-132.1c-391.6-249.9-305.6-828.6,1.8-1109.9   c96.4-88.2,221.2-149.7,352.3-160.6c146.7-12.2,300.4,33.8,410.8,132.5c100.4,89.6,159.3,212.6,289.8,265.7   c151.4,61.6,319.3,37.5,478,55.7c311.9,35.9,515.8,309.2,446.9,621.1c-79.9,361.5-412.1,441.9-734.2,454.5   c-186.7,7.3-373.4-11.4-557.3-43.2C1292.8,1664.1,1159.4,1639.6,1031.6,1601.6z"></path>
	<g>
		<g>
			<g>
				<path class="st1" d="M669,1165.4c-16,14-39.7,18.5-59.7,11.2s-35.3-26-38.5-46.9c-3.8-24.7,6.7-54.4-10.7-72.3      c-8.8-9-22.7-12.1-30.2-22.2c-6.2-8.5-6.4-19.9-6.3-30.4c0.2-18.7,0.4-37.5,0.6-56.2c-8.3-10.4-25.1-9.8-35.1-18.6      c-9.8-8.8-12-23.1-13.7-36.1c-5.2-38.6-12.5-76.9-21.9-114.6c29.2,8.6,58.1,17.9,85.8,30.5c15.4,7.1,31.6,15.7,39.3,30.8      c7.8,15.2,5.3,33.3,5.1,50.4c-0.1,5.5,0.1,11.2,2.5,16.2c6,12.9,22.6,15.9,34.9,23c13.6,7.8,23.1,22.4,24.8,38.1      c1.5,14.2-3.1,28.7-0.4,42.7c5.9,31.1,43.2,45.4,58,73.3C719,1113.5,693.8,1143.6,669,1165.4z"></path>
				<path class="st2" d="M745.6,1443.1c-0.5,0-1-0.4-1-0.9c-5.9-33.9-26.3-125.6-61.9-229.9c-26.1-76.5-56.3-148.9-89.8-215      c-41.9-82.6-89-155.8-140.1-217.4c-0.4-0.5-0.3-1.1,0.1-1.5c0.5-0.4,1.1-0.3,1.5,0.1c51.2,61.7,98.5,135,140.4,217.8      c33.6,66.2,63.8,138.7,90,215.3c35.6,104.4,56.1,196.2,62,230.2c0.1,0.6-0.3,1.1-0.9,1.2      C745.7,1443.1,745.7,1443.1,745.6,1443.1z"></path>
			</g>
			<g>
				<path class="st1" d="M207.8,1077.9c10,8.1,14.3,21.1,19.4,32.9s12.9,24.2,25.4,27.2c13.6,3.3,27.8-5.7,41.5-2.6      c11,2.5,18.9,12.2,24.7,21.9c5.8,9.7,10.9,20.3,19.9,27.2c14,10.6,33.4,9.2,50.8,6.8s36.3-5.1,51.5,3.8      c18.5,10.8,25.3,35.2,43.7,46.2c7.8,4.7,17,6.4,26.1,7.1c27,2,54.6-5.2,77.1-20.3c-1.3-24.6-9.9-51.2-25.3-70.4      s-38.7-32.5-63.4-33.9c-7.9-0.4-15.8,0.3-23.6-0.9c-32.6-5.4-49.6-43.3-79.8-56.7c-12.8-5.7-27.8-6.5-41.2-2.3      c-13.1,4.1-24.8,12.9-38.5,14.4c-13.4,1.4-26.3-4.4-39.2-8C252.2,1063.3,232.1,1069.1,207.8,1077.9z"></path>
				<path class="st2" d="M736.5,1434.3c-0.5,0-0.9-0.3-1-0.8c-15.5-60.7-50.3-118.8-100.5-168.2c-43.1-42.4-98.5-79.1-164.7-109.1      c-71.2-32.3-153.2-56.7-258.3-77c-0.6-0.1-1-0.7-0.8-1.2c0.1-0.6,0.7-0.9,1.2-0.8c105.2,20.3,187.5,44.8,258.8,77.2      c66.4,30.1,122,66.9,165.3,109.5c50.5,49.6,85.4,108.1,101,169.2c0.1,0.6-0.2,1.1-0.8,1.3      C736.6,1434.3,736.5,1434.3,736.5,1434.3z"></path>
			</g>
			<path class="st1" d="M778.3,1076.8c-15.5,3-32.2-1.2-44.5-11.2c-12.3-10-19.8-25.5-20-41.3c-0.2-12,3.6-23.7,7.7-34.9     c1.4-3.9,2.9-7.9,2.4-12c-0.4-3.2-2-6.2-3.8-8.9c-6.7-10.3-16-19.2-19.5-30.9c-6.2-20.8,7.7-43.2,3.3-64.5     c-1.5-7.4-5.2-14.2-7.8-21.3c-9.2-25-4.4-54.7,12.2-75.6c23.4,9.4,38.7,34.3,38.9,59.6c0.1,12.6-3.3,25.9,2,37.3     c3.2,6.8,9.1,11.9,14.7,16.9c9.7,8.9,19.1,19.1,22.5,31.8c5.4,20-4.9,42,1.8,61.6c6.6,19.4,28.3,31,34.2,50.6     c1.6,5.3,1.9,10.9,1.5,16.3c-0.7,8.4-3.5,17.1-9.8,22.7C804.1,1081.8,791.2,1074.3,778.3,1076.8z"></path>
			<path class="st2" d="M787.1,1439.6c-0.5,0-1-0.4-1.1-1c-4.6-54-3.3-109.2-2.1-162.6c1.7-73.9,3.4-150.3-10.4-223.9     c-7.1-38.1-18.6-76-29.6-112.6c-15.4-51-31.3-103.7-35.8-157.6c0-0.6,0.4-1.1,1-1.1c0.6,0,1.1,0.4,1.1,1     c4.5,53.7,20.4,106.3,35.7,157.1c11.1,36.7,22.5,74.6,29.7,112.8c13.9,73.8,12.1,150.4,10.4,224.3c-1.2,53.3-2.5,108.5,2.1,162.4     C788.2,1439,787.7,1439.5,787.1,1439.6C787.1,1439.6,787.1,1439.6,787.1,1439.6z"></path>
		</g>
		<g>
			<g>
				<path id="XMLID_256_" class="st3" d="M670.1,1779.3c0,0-98.2-331.9-82.4-340.7s403.5-9.1,403.5-9.1s-44.5,349.1-56.8,349.8      C922.1,1780.1,702.8,1780.9,670.1,1779.3z"></path>
			</g>
			<g>
				<defs>
					<path id="SVGID_1_" d="M670.1,1779.3c0,0-98.2-331.9-82.4-340.7s403.5-9.1,403.5-9.1s-44.5,349.1-56.8,349.8       C922.1,1780.1,702.8,1780.9,670.1,1779.3z"></path>
				</defs>
				<clipPath id="SVGID_00000181062434595827634480000012381527613977377174_">
					<use xlink:href="#SVGID_1_" style="overflow:visible;"></use>
				</clipPath>
				<path style="clip-path:url(#SVGID_00000181062434595827634480000012381527613977377174_);fill:#1C056D;" d="M765.8,1403.9      c0,0-113.4,144.9-107,148.8s325.1,69.6,324.9,65.7c-0.1-3.9,32.4-188.8,32.4-188.8L765.8,1403.9z"></path>
			</g>
		</g>
	</g>
	<g>
		<g>
			<g>
				<rect x="1420.5" y="1494.3" class="st3" width="277.4" height="235.8"></rect>
				<path class="st2" d="M1789.4,1780.2h-453.7c-11.5,0-20.9-9.3-20.9-20.9v-8.4c0-11.5,9.3-20.9,20.9-20.9h453.7      c11.5,0,20.9,9.3,20.9,20.9v8.4C1810.2,1770.9,1800.9,1780.2,1789.4,1780.2z"></path>
			</g>
			<path class="st5" d="M862.1,672c0.6-1.2,1.8-1.9,3.1-1.9c56-0.4,1341.2-8.9,1398.2,0c22.4,3.5,16.9,858.1,0,890.7     c-12.4,24-1384.1,2.9-1400,0C843.7,1557.3,833.9,728.2,862.1,672z"></path>
			<g>
				<g>
					<path id="XMLID_254_" class="st1" d="M895.9,711.4c0,0-4.4,729.7,13.2,731.6c17.6,2,1299.5,10,1310.5,0s15.4-737.6,0-737.6       C2204.2,705.4,895.9,711.4,895.9,711.4z"></path>
				</g>
				<g>
					<defs>
						<path id="SVGID_00000117668126837266082870000007278286191043105429_" d="M895.9,711.4c0,0-4.4,729.7,13.2,731.6        c17.6,2,1299.5,10,1310.5,0s15.4-737.6,0-737.6C2204.2,705.4,895.9,711.4,895.9,711.4z"></path>
					</defs>
					<clipPath id="SVGID_00000011024238353675610700000017984797557952498838_">
						<use xlink:href="#SVGID_00000117668126837266082870000007278286191043105429_" style="overflow:visible;"></use>
					</clipPath>
					
						<polygon style="opacity:0.46;clip-path:url(#SVGID_00000011024238353675610700000017984797557952498838_);fill:#6880E4;enable-background:new    ;" points="       1737.9,688.8 1239.7,1462.3 871.4,1462.3 895.9,711.4      "></polygon>
				</g>
				<g>
					<defs>
						<path id="SVGID_00000093154846041806999930000015195546367402720136_" d="M895.9,711.4c0,0-4.4,729.7,13.2,731.6        c17.6,2,1299.5,10,1310.5,0s15.4-737.6,0-737.6C2204.2,705.4,895.9,711.4,895.9,711.4z"></path>
					</defs>
					<clipPath id="SVGID_00000028291646601946942960000015257492066928800402_">
						<use xlink:href="#SVGID_00000093154846041806999930000015195546367402720136_" style="overflow:visible;"></use>
					</clipPath>
					
						<polygon style="opacity:0.46;clip-path:url(#SVGID_00000028291646601946942960000015257492066928800402_);fill:#6880E4;enable-background:new    ;" points="       1353.4,1468.6 1832.2,684.7 2042.4,684.7 1581,1464.5      "></polygon>
				</g>
				<g>
					<defs>
						<path id="SVGID_00000013178548593185078850000007279317935740723094_" d="M895.9,711.4c0,0-4.4,729.7,13.2,731.6        c17.6,2,1299.5,10,1310.5,0s15.4-737.6,0-737.6C2204.2,705.4,895.9,711.4,895.9,711.4z"></path>
					</defs>
					<clipPath id="SVGID_00000046314682834838485660000010249115521225780651_">
						<use xlink:href="#SVGID_00000013178548593185078850000007279317935740723094_" style="overflow:visible;"></use>
					</clipPath>
					
						<polygon style="opacity:0.46;clip-path:url(#SVGID_00000046314682834838485660000010249115521225780651_);fill:#6880E4;enable-background:new    ;" points="       2131.2,687.6 1667.6,1469.3 1954.8,1465.7 2263.2,898 2257,692.5      "></polygon>
				</g>
			</g>
		</g>
		<ellipse class="st3" cx="1559.2" cy="1516.4" rx="33.7" ry="33.7"></ellipse>
		<g>
			<path class="st9" d="M1241.2,1026.6c1.7-7.7,4.9-13.6,9.7-17.6c4.8-4,10.1-6.1,15.9-6.2c5.8-0.1,11.3,1.6,16.5,5.2     c5.2,3.6,9,9.1,11.2,16.5c0.3,17.9,0.4,35.6,0.4,53.1c0,17.5,0.3,35.1,0.8,52.7c12.1,0,23.9-0.1,35.4-0.4     c11.4-0.3,22.4-0.4,32.9-0.4c7.4,2.2,13,5.7,16.5,10.5c3.6,4.8,5.3,9.9,5.2,15.1c-0.1,5.2-2.2,10.1-6.2,14.5     c-4,4.4-9.9,7.4-17.6,9.1c-10.8,0-21.5,0.1-32.3,0.2c-10.8,0.1-21.5,0.1-32.3-0.2c0.5,13.8,0.9,28.7,1,44.9     c0.1,16.1,0.3,31.1,0.6,44.9c-0.6,9.1-3.5,15.9-8.9,20.3c-5.4,4.4-11.4,6.6-18,6.6c-6.6,0-12.9-2.3-18.8-6.8     c-5.9-4.5-9.4-11.2-10.5-20.1c-0.3-14.1-0.1-28.9,0.6-44.5c0.7-15.6,0.8-30.4,0.2-44.5c-11.9-0.3-24.6-0.9-38.3-1.9     c-13.6-1-26.9-3-39.7-6c-12.8-3-24.6-7.3-35.4-12.8c-10.8-5.5-19.4-12.8-26.1-21.9c-6.1-8.5-9.5-17.8-10.3-27.7     s0.1-20.1,2.9-30.6c2.8-10.5,6.9-21.1,12.4-31.8c5.5-10.8,11.5-21.1,18-31c6.5-9.9,13-19.2,19.4-27.9c6.5-8.7,12.2-16.3,17.2-23     c11-14.9,22.3-29.4,33.9-43.4c11.6-14.1,23.2-28.3,34.7-42.6c6.1-5,12.3-7.5,18.8-7.7c6.5-0.1,12.1,1.4,16.7,4.8     c4.7,3.3,7.9,8,9.7,14.1c1.8,6.1,1.3,12.8-1.4,20.3c-9.4,11.6-20.4,24.7-33.1,39.5c-12.7,14.8-25.2,30.2-37.4,46.3     c-12.3,16.1-23.4,32.5-33.5,49.2c-10.1,16.7-17.2,32.9-21.3,48.6c-1.7,5.5-1,10.3,1.9,14.3c2.9,4,7.2,7.3,12.8,9.9     c5.6,2.6,12.2,4.8,19.6,6.4c7.4,1.7,14.8,2.9,22.1,3.7c7.3,0.8,14.1,1.4,20.3,1.9c6.2,0.4,11,0.8,14.3,1     c-0.6-17.4-0.8-34.8-0.8-52.3C1241.2,1061.4,1241.2,1044,1241.2,1026.6z"></path>
			<path class="st9" d="M1441.7,1217.3c-3.6-11.9-7.2-26.7-10.8-44.5c-3.6-17.8-6.3-37-8.1-57.7c-1.8-20.7-2.4-41.9-1.9-63.7     c0.5-21.8,3-42.6,7.2-62.4c4.3-19.8,10.8-37.9,19.6-54.2c8.8-16.3,20.5-29.1,35.2-38.5c18.2-11.6,36.9-19.8,56.2-24.8     c19.3-5,38.2-6.9,56.7-5.8c18.5,1.1,36,5,52.7,11.8c16.7,6.8,31.3,15.9,43.8,27.5c12.5,11.6,22.6,25.5,30.2,41.8     c7.6,16.3,11.6,34.5,12.2,54.6c0.3,19,1,39.4,2.1,61c1.1,21.6,1.2,43.4,0.2,65.1c-1,21.8-3.8,42.8-8.5,63.1     c-4.7,20.3-12.4,38.5-23.2,54.8c-9.1,13.8-21.3,25-36.6,33.5c-15.3,8.5-31.8,14.5-49.6,18c-17.8,3.4-36,4.3-54.8,2.7     c-18.8-1.7-36.3-5.9-52.7-12.6c-16.4-6.8-30.9-15.9-43.4-27.5C1455.9,1247.9,1447,1233.8,1441.7,1217.3z M1510.8,943.9     c-7.2,5.5-13.6,13.6-19.2,24.2c-5.7,10.6-8.9,21.9-9.7,33.7c-1.1,16.5-2.2,33.3-3.3,50.2c-1.1,17-1.5,33.7-1.2,50.2     c0.3,16.5,1.7,32.8,4.1,48.8c2.5,16,7,31.3,13.6,45.9c4.1,9.7,10.3,17.8,18.4,24.4c8.1,6.6,17.2,11.7,27.3,15.3     c10.1,3.6,20.7,5.6,32,6c11.3,0.4,22.3-0.7,33.1-3.3c10.8-2.6,20.9-6.8,30.4-12.6c9.5-5.8,17.6-13.2,24.2-22.3     c4.7-5.8,8.5-13.9,11.4-24.2c2.9-10.3,5-21.8,6.4-34.5c1.4-12.7,2.2-25.8,2.5-39.3c0.3-13.5,0.3-26.3,0-38.5     c-0.3-12.1-0.6-23-0.8-32.5c-0.3-9.5-0.4-16.5-0.4-20.9c0.3-13.2-1.9-25.6-6.4-37c-4.5-11.4-10.8-21.4-18.8-30     c-8-8.5-17.4-15.4-28.3-20.7c-10.9-5.2-22.6-8.3-35.2-9.1c-12.5-0.8-25.6,0.8-39.3,5C1537.9,927,1524.3,934,1510.8,943.9z"></path>
			<path class="st9" d="M1930.1,1026.6c1.7-7.7,4.9-13.6,9.7-17.6c4.8-4,10.1-6.1,15.9-6.2c5.8-0.1,11.3,1.6,16.5,5.2     c5.2,3.6,9,9.1,11.2,16.5c0.3,17.9,0.4,35.6,0.4,53.1c0,17.5,0.3,35.1,0.8,52.7c12.1,0,23.9-0.1,35.4-0.4     c11.4-0.3,22.4-0.4,32.9-0.4c7.4,2.2,13,5.7,16.5,10.5c3.6,4.8,5.3,9.9,5.2,15.1c-0.1,5.2-2.2,10.1-6.2,14.5     c-4,4.4-9.9,7.4-17.6,9.1c-10.8,0-21.5,0.1-32.3,0.2c-10.8,0.1-21.5,0.1-32.3-0.2c0.5,13.8,0.9,28.7,1,44.9     c0.1,16.1,0.3,31.1,0.6,44.9c-0.6,9.1-3.5,15.9-8.9,20.3c-5.4,4.4-11.4,6.6-18,6.6c-6.6,0-12.9-2.3-18.8-6.8     c-5.9-4.5-9.4-11.2-10.5-20.1c-0.3-14.1-0.1-28.9,0.6-44.5c0.7-15.6,0.8-30.4,0.2-44.5c-11.9-0.3-24.6-0.9-38.3-1.9     c-13.6-1-26.9-3-39.7-6c-12.8-3-24.6-7.3-35.4-12.8c-10.8-5.5-19.4-12.8-26.1-21.9c-6.1-8.5-9.5-17.8-10.3-27.7     c-0.8-9.9,0.1-20.1,2.9-30.6c2.8-10.5,6.9-21.1,12.4-31.8c5.5-10.8,11.5-21.1,18-31c6.5-9.9,13-19.2,19.4-27.9     c6.5-8.7,12.2-16.3,17.2-23c11-14.9,22.3-29.4,33.9-43.4c11.6-14.1,23.2-28.3,34.7-42.6c6.1-5,12.3-7.5,18.8-7.7     c6.5-0.1,12.1,1.4,16.7,4.8c4.7,3.3,7.9,8,9.7,14.1c1.8,6.1,1.3,12.8-1.4,20.3c-9.4,11.6-20.4,24.7-33.1,39.5     c-12.7,14.8-25.2,30.2-37.4,46.3c-12.3,16.1-23.4,32.5-33.5,49.2c-10.1,16.7-17.2,32.9-21.3,48.6c-1.7,5.5-1,10.3,1.9,14.3     c2.9,4,7.2,7.3,12.8,9.9c5.6,2.6,12.2,4.8,19.6,6.4c7.4,1.7,14.8,2.9,22.1,3.7c7.3,0.8,14.1,1.4,20.3,1.9c6.2,0.4,11,0.8,14.3,1     c-0.6-17.4-0.8-34.8-0.8-52.3C1930.1,1061.4,1930.1,1044,1930.1,1026.6z"></path>
		</g>
		<g>
			<path class="st10" d="M1160.5,1566.6l-132.6-372.8l33.7,5.4c1.9,0.3,3.5,1.6,4.1,3.4l132.7,364.3c0,0.1,0,0.2-0.1,0.2     L1160.5,1566.6z"></path>
			<g>
				<path class="st11" d="M734.2,1582.4c5.6-1,280.7-391.4,293.7-388.6c13,2.9,164.1,461.7,158.5,460.8      C1180.8,1653.7,720.3,1584.9,734.2,1582.4z"></path>
				<g>
					<path class="st9" d="M985.1,1519.2c-2.1,1.9-4.3,3.2-6.5,3.7c-2.2,0.6-4.3,0.6-6.3-0.1c-2-0.6-3.8-1.7-5.5-3.4       c-1.6-1.7-2.9-3.8-3.7-6.5c1.3-16.4,2.4-33.1,3.1-50c0.7-16.9,1.6-33.8,2.7-50.5c1.1-16.7,2.7-33.2,4.8-49.4       c2.1-16.2,5.2-31.8,9.2-46.8c0.3-1.2,1.5-2.3,3.4-3.3c1.9-1,4.2-1.7,7-2.1c2.7-0.4,5.7-0.6,9-0.5c3.2,0.1,6.3,0.5,9.3,1.2       c3,0.7,5.6,1.7,8,3.1c2.3,1.4,4,3.1,5.1,5.2c1.7,2.4,2.8,6.5,3.1,12.3c0.3,5.8,0.2,12.9-0.4,21.1c-0.6,8.2-1.7,17.3-3.3,27.4       c-1.6,10-3.5,20.3-5.6,30.9c-2.2,10.6-4.6,21.2-7.2,31.8c-2.6,10.6-5.4,20.7-8.3,30.2c-2.9,9.5-5.8,18.1-8.8,25.9       c-2.9,7.8-5.8,14.1-8.5,18.8C985.7,1518.4,985.5,1518.7,985.1,1519.2z M956.7,1581.5c-3-2.3-5.4-5-7.3-8       c-1.8-3-2.9-6.1-3.2-9.3c-0.3-3.1,0.4-6.2,2-9.2c1.6-3,4.3-5.6,8-7.8c5.1-3.1,10.3-4.3,15.5-3.6c5.2,0.7,9.1,3.9,11.9,9.4       c2.6,4.8,3.9,9.9,3.8,15.5c-0.1,5.5-2.5,10.3-7.2,14.4c-3.5,3.1-7.4,4.4-11.7,3.8C964.1,1586.2,960.1,1584.4,956.7,1581.5z"></path>
				</g>
			</g>
		</g>
	</g>
	<g>
		<g>
			<g>
				<path id="XMLID_258_" class="st3" d="M2508.6,1778.7h-332.9c-6.7,0-12.1-5.4-12.1-12.1v-388.8c0-6.7,5.4-12.1,12.1-12.1h332.9      c6.7,0,12.1,5.4,12.1,12.1v388.8C2520.7,1773.3,2515.3,1778.7,2508.6,1778.7z"></path>
			</g>
			<g>
				<defs>
					<path id="SVGID_00000144297977115234358900000008989795477598509205_" d="M2508.6,1778.7h-332.9c-6.7,0-12.1-5.4-12.1-12.1       v-388.8c0-6.7,5.4-12.1,12.1-12.1h332.9c6.7,0,12.1,5.4,12.1,12.1v388.8C2520.7,1773.3,2515.3,1778.7,2508.6,1778.7z"></path>
				</defs>
				<clipPath id="SVGID_00000003102273400803412370000009072628187463600261_">
					<use xlink:href="#SVGID_00000144297977115234358900000008989795477598509205_" style="overflow:visible;"></use>
				</clipPath>
				<path style="clip-path:url(#SVGID_00000003102273400803412370000009072628187463600261_);fill:#1C056D;" d="M2530.7,1424.2      c0,0-139.8,196.9-392.9,251.4v120.5h401.7C2539.6,1796.1,2550,1431.3,2530.7,1424.2z"></path>
			</g>
		</g>
		<g>
			<g>
				<path id="XMLID_255_" class="st11" d="M2258,1365.7c0,0-4.7-340,1.6-343.9c6.3-3.9,54.5-7.9,58.4,1.6c3.9,9.5,0,342.3,0,342.3      L2258,1365.7L2258,1365.7z"></path>
			</g>
			<g>
				<defs>
					<path id="SVGID_00000150821499664943200800000017767065244566647988_" d="M2258,1365.7c0,0-4.7-340,1.6-343.9       c6.3-3.9,54.5-7.9,58.4,1.6c3.9,9.5,0,342.3,0,342.3L2258,1365.7L2258,1365.7z"></path>
				</defs>
				<clipPath id="SVGID_00000127020762263901364520000005560919124922294950_">
					<use xlink:href="#SVGID_00000150821499664943200800000017767065244566647988_" style="overflow:visible;"></use>
				</clipPath>
				<polygon style="clip-path:url(#SVGID_00000127020762263901364520000005560919124922294950_);fill:#D40221;" points="      2299.3,1070.3 2299.3,1372.4 2276.8,1372.4 2276.8,1070.9     "></polygon>
			</g>
			<g>
				<defs>
					<path id="SVGID_00000121275042575384618350000004569828600038105520_" d="M2258,1365.7c0,0-4.7-340,1.6-343.9       c6.3-3.9,54.5-7.9,58.4,1.6c3.9,9.5,0,342.3,0,342.3L2258,1365.7L2258,1365.7z"></path>
				</defs>
				<clipPath id="SVGID_00000070807145927347715730000009772277505680168621_">
					<use xlink:href="#SVGID_00000121275042575384618350000004569828600038105520_" style="overflow:visible;"></use>
				</clipPath>
				<path style="clip-path:url(#SVGID_00000070807145927347715730000009772277505680168621_);fill:#D4DFFF;" d="M2247,1083.4      c0,0,70.1-5.3,79.9-0.4c0,0-0.5-69.9-4.4-71.3s-70.8-1.8-72.3,5.9C2248.7,1025.3,2247,1083.4,2247,1083.4z"></path>
			</g>
		</g>
		<g>
			<g>
				<path id="XMLID_257_" class="st1" d="M2492.9,1365.7h-139.5V875.1c0-2.1,1.7-3.7,3.7-3.7h132c2.1,0,3.7,1.7,3.7,3.7      L2492.9,1365.7L2492.9,1365.7z"></path>
			</g>
			<g>
				<defs>
					<path id="SVGID_00000023259394442963622440000013175848402483449010_" d="M2492.9,1365.7h-139.5V875.1c0-2.1,1.7-3.7,3.7-3.7       h132c2.1,0,3.7,1.7,3.7,3.7L2492.9,1365.7L2492.9,1365.7z"></path>
				</defs>
				<clipPath id="SVGID_00000152967064211033316490000016974133570317943230_">
					<use xlink:href="#SVGID_00000023259394442963622440000013175848402483449010_" style="overflow:visible;"></use>
				</clipPath>
				
					<rect x="2342.2" y="853.3" style="opacity:0.46;clip-path:url(#SVGID_00000152967064211033316490000016974133570317943230_);fill:#6880E4;enable-background:new    ;" width="47.8" height="530.5"></rect>
			</g>
			<g>
				<defs>
					<path id="SVGID_00000125597720995764553720000015545265977981751990_" d="M2492.9,1365.7h-139.5V875.1c0-2.1,1.7-3.7,3.7-3.7       h132c2.1,0,3.7,1.7,3.7,3.7L2492.9,1365.7L2492.9,1365.7z"></path>
				</defs>
				<clipPath id="SVGID_00000181047129683931722340000002392996749449555632_">
					<use xlink:href="#SVGID_00000125597720995764553720000015545265977981751990_" style="overflow:visible;"></use>
				</clipPath>
				
					<rect x="2353.4" y="909.3" style="clip-path:url(#SVGID_00000181047129683931722340000002392996749449555632_);fill:#6880E4;" width="17.6" height="6.1"></rect>
			</g>
			<g>
				<defs>
					<path id="SVGID_00000085229789450053772230000018226122776544306831_" d="M2492.9,1365.7h-139.5V875.1c0-2.1,1.7-3.7,3.7-3.7       h132c2.1,0,3.7,1.7,3.7,3.7L2492.9,1365.7L2492.9,1365.7z"></path>
				</defs>
				<clipPath id="SVGID_00000108272059145345982920000016765458628442708404_">
					<use xlink:href="#SVGID_00000085229789450053772230000018226122776544306831_" style="overflow:visible;"></use>
				</clipPath>
				
					<rect x="2353.4" y="937.4" style="clip-path:url(#SVGID_00000108272059145345982920000016765458628442708404_);fill:#6880E4;" width="17.6" height="6.1"></rect>
			</g>
			<g>
				<defs>
					<path id="SVGID_00000093856557588653716200000008750462458028717728_" d="M2492.9,1365.7h-139.5V875.1c0-2.1,1.7-3.7,3.7-3.7       h132c2.1,0,3.7,1.7,3.7,3.7L2492.9,1365.7L2492.9,1365.7z"></path>
				</defs>
				<clipPath id="SVGID_00000087388930671441744830000012296065543227363223_">
					<use xlink:href="#SVGID_00000093856557588653716200000008750462458028717728_" style="overflow:visible;"></use>
				</clipPath>
				
					<rect x="2353.4" y="965.6" style="clip-path:url(#SVGID_00000087388930671441744830000012296065543227363223_);fill:#6880E4;" width="17.6" height="6.1"></rect>
			</g>
			<g>
				<defs>
					<path id="SVGID_00000111882475315827539600000014761859205289364623_" d="M2492.9,1365.7h-139.5V875.1c0-2.1,1.7-3.7,3.7-3.7       h132c2.1,0,3.7,1.7,3.7,3.7L2492.9,1365.7L2492.9,1365.7z"></path>
				</defs>
				<clipPath id="SVGID_00000122716370613041276880000011209269665215476864_">
					<use xlink:href="#SVGID_00000111882475315827539600000014761859205289364623_" style="overflow:visible;"></use>
				</clipPath>
				
					<rect x="2353.4" y="993.8" style="clip-path:url(#SVGID_00000122716370613041276880000011209269665215476864_);fill:#6880E4;" width="17.6" height="6.1"></rect>
			</g>
			<g>
				<defs>
					<path id="SVGID_00000033354091915419070110000015863365721450699708_" d="M2492.9,1365.7h-139.5V875.1c0-2.1,1.7-3.7,3.7-3.7       h132c2.1,0,3.7,1.7,3.7,3.7L2492.9,1365.7L2492.9,1365.7z"></path>
				</defs>
				<clipPath id="SVGID_00000088817437946217342120000009157873107809006263_">
					<use xlink:href="#SVGID_00000033354091915419070110000015863365721450699708_" style="overflow:visible;"></use>
				</clipPath>
				
					<rect x="2353.4" y="1022" style="clip-path:url(#SVGID_00000088817437946217342120000009157873107809006263_);fill:#6880E4;" width="17.6" height="6.1"></rect>
			</g>
			<g>
				<defs>
					<path id="SVGID_00000156569039359803749820000006457727472968546967_" d="M2492.9,1365.7h-139.5V875.1c0-2.1,1.7-3.7,3.7-3.7       h132c2.1,0,3.7,1.7,3.7,3.7L2492.9,1365.7L2492.9,1365.7z"></path>
				</defs>
				<clipPath id="SVGID_00000028308331648413103820000017050208391967681668_">
					<use xlink:href="#SVGID_00000156569039359803749820000006457727472968546967_" style="overflow:visible;"></use>
				</clipPath>
				
					<rect x="2353.4" y="1050.2" style="clip-path:url(#SVGID_00000028308331648413103820000017050208391967681668_);fill:#6880E4;" width="17.6" height="6.1"></rect>
			</g>
			<g>
				<defs>
					<path id="SVGID_00000038410417460417627810000009475951620153355394_" d="M2492.9,1365.7h-139.5V875.1c0-2.1,1.7-3.7,3.7-3.7       h132c2.1,0,3.7,1.7,3.7,3.7L2492.9,1365.7L2492.9,1365.7z"></path>
				</defs>
				<clipPath id="SVGID_00000161634138563537588950000014649634815063036587_">
					<use xlink:href="#SVGID_00000038410417460417627810000009475951620153355394_" style="overflow:visible;"></use>
				</clipPath>
				
					<rect x="2353.4" y="1078.4" style="clip-path:url(#SVGID_00000161634138563537588950000014649634815063036587_);fill:#6880E4;" width="17.6" height="6.1"></rect>
			</g>
			<g>
				<defs>
					<path id="SVGID_00000098928821737937665470000015501276260026214030_" d="M2492.9,1365.7h-139.5V875.1c0-2.1,1.7-3.7,3.7-3.7       h132c2.1,0,3.7,1.7,3.7,3.7L2492.9,1365.7L2492.9,1365.7z"></path>
				</defs>
				<clipPath id="SVGID_00000095336218977953252880000006043546286078531485_">
					<use xlink:href="#SVGID_00000098928821737937665470000015501276260026214030_" style="overflow:visible;"></use>
				</clipPath>
				
					<rect x="2353.4" y="1106.5" style="clip-path:url(#SVGID_00000095336218977953252880000006043546286078531485_);fill:#6880E4;" width="17.6" height="6.1"></rect>
			</g>
			<g>
				<defs>
					<path id="SVGID_00000021102811223698039560000004309549047271434157_" d="M2492.9,1365.7h-139.5V875.1c0-2.1,1.7-3.7,3.7-3.7       h132c2.1,0,3.7,1.7,3.7,3.7L2492.9,1365.7L2492.9,1365.7z"></path>
				</defs>
				<clipPath id="SVGID_00000027595948213967834620000015475465382252965307_">
					<use xlink:href="#SVGID_00000021102811223698039560000004309549047271434157_" style="overflow:visible;"></use>
				</clipPath>
				
					<rect x="2353.4" y="1134.7" style="clip-path:url(#SVGID_00000027595948213967834620000015475465382252965307_);fill:#6880E4;" width="17.6" height="6.1"></rect>
			</g>
			<g>
				<defs>
					<path id="SVGID_00000163049362201583903950000011716129970092206731_" d="M2492.9,1365.7h-139.5V875.1c0-2.1,1.7-3.7,3.7-3.7       h132c2.1,0,3.7,1.7,3.7,3.7L2492.9,1365.7L2492.9,1365.7z"></path>
				</defs>
				<clipPath id="SVGID_00000070080110763372666460000011640823276908860312_">
					<use xlink:href="#SVGID_00000163049362201583903950000011716129970092206731_" style="overflow:visible;"></use>
				</clipPath>
				
					<rect x="2353.4" y="1162.9" style="clip-path:url(#SVGID_00000070080110763372666460000011640823276908860312_);fill:#6880E4;" width="17.6" height="6.1"></rect>
			</g>
			<g>
				<defs>
					<path id="SVGID_00000119835223463009025950000005495811560676909242_" d="M2492.9,1365.7h-139.5V875.1c0-2.1,1.7-3.7,3.7-3.7       h132c2.1,0,3.7,1.7,3.7,3.7L2492.9,1365.7L2492.9,1365.7z"></path>
				</defs>
				<clipPath id="SVGID_00000052813132442258984910000004737448146251961474_">
					<use xlink:href="#SVGID_00000119835223463009025950000005495811560676909242_" style="overflow:visible;"></use>
				</clipPath>
				
					<rect x="2353.4" y="1191.1" style="clip-path:url(#SVGID_00000052813132442258984910000004737448146251961474_);fill:#6880E4;" width="17.6" height="6.1"></rect>
			</g>
			<g>
				<defs>
					<path id="SVGID_00000173161233443535791250000002827780970711731877_" d="M2492.9,1365.7h-139.5V875.1c0-2.1,1.7-3.7,3.7-3.7       h132c2.1,0,3.7,1.7,3.7,3.7L2492.9,1365.7L2492.9,1365.7z"></path>
				</defs>
				<clipPath id="SVGID_00000137811243093122637250000001573166220010891932_">
					<use xlink:href="#SVGID_00000173161233443535791250000002827780970711731877_" style="overflow:visible;"></use>
				</clipPath>
				
					<rect x="2353.4" y="1219.3" style="clip-path:url(#SVGID_00000137811243093122637250000001573166220010891932_);fill:#6880E4;" width="17.6" height="6.1"></rect>
			</g>
			<g>
				<defs>
					<path id="SVGID_00000038405473201682720730000014999126881380939941_" d="M2492.9,1365.7h-139.5V875.1c0-2.1,1.7-3.7,3.7-3.7       h132c2.1,0,3.7,1.7,3.7,3.7L2492.9,1365.7L2492.9,1365.7z"></path>
				</defs>
				<clipPath id="SVGID_00000028310152662255420560000003775113396170613151_">
					<use xlink:href="#SVGID_00000038405473201682720730000014999126881380939941_" style="overflow:visible;"></use>
				</clipPath>
				
					<rect x="2353.4" y="1247.5" style="clip-path:url(#SVGID_00000028310152662255420560000003775113396170613151_);fill:#6880E4;" width="17.6" height="6.1"></rect>
			</g>
			<g>
				<defs>
					<path id="SVGID_00000030467824300547934820000012184527763685738884_" d="M2492.9,1365.7h-139.5V875.1c0-2.1,1.7-3.7,3.7-3.7       h132c2.1,0,3.7,1.7,3.7,3.7L2492.9,1365.7L2492.9,1365.7z"></path>
				</defs>
				<clipPath id="SVGID_00000049903477828653895170000015739690824590349489_">
					<use xlink:href="#SVGID_00000030467824300547934820000012184527763685738884_" style="overflow:visible;"></use>
				</clipPath>
				
					<rect x="2353.4" y="1275.6" style="clip-path:url(#SVGID_00000049903477828653895170000015739690824590349489_);fill:#6880E4;" width="17.6" height="6.1"></rect>
			</g>
			<g>
				<defs>
					<path id="SVGID_00000161615985937520217030000006925330800046940311_" d="M2492.9,1365.7h-139.5V875.1c0-2.1,1.7-3.7,3.7-3.7       h132c2.1,0,3.7,1.7,3.7,3.7L2492.9,1365.7L2492.9,1365.7z"></path>
				</defs>
				<clipPath id="SVGID_00000165937556270123823000000009174370459636490371_">
					<use xlink:href="#SVGID_00000161615985937520217030000006925330800046940311_" style="overflow:visible;"></use>
				</clipPath>
				
					<rect x="2353.4" y="1303.8" style="clip-path:url(#SVGID_00000165937556270123823000000009174370459636490371_);fill:#6880E4;" width="17.6" height="6.1"></rect>
			</g>
			<g>
				<defs>
					<path id="SVGID_00000055682644308178247470000002863043373716887211_" d="M2492.9,1365.7h-139.5V875.1c0-2.1,1.7-3.7,3.7-3.7       h132c2.1,0,3.7,1.7,3.7,3.7L2492.9,1365.7L2492.9,1365.7z"></path>
				</defs>
				<clipPath id="SVGID_00000011000563672038626080000015337705093144239790_">
					<use xlink:href="#SVGID_00000055682644308178247470000002863043373716887211_" style="overflow:visible;"></use>
				</clipPath>
				
					<rect x="2353.4" y="1332" style="clip-path:url(#SVGID_00000011000563672038626080000015337705093144239790_);fill:#6880E4;" width="17.6" height="6.1"></rect>
			</g>
			<g>
				<defs>
					<path id="SVGID_00000133507107968736752270000013727325862622565803_" d="M2492.9,1365.7h-139.5V875.1c0-2.1,1.7-3.7,3.7-3.7       h132c2.1,0,3.7,1.7,3.7,3.7L2492.9,1365.7L2492.9,1365.7z"></path>
				</defs>
				<clipPath id="SVGID_00000026155430339871444690000014590742224253544368_">
					<use xlink:href="#SVGID_00000133507107968736752270000013727325862622565803_" style="overflow:visible;"></use>
				</clipPath>
				
					<path style="opacity:0.17;clip-path:url(#SVGID_00000026155430339871444690000014590742224253544368_);fill:#6880E4;enable-background:new    ;" d="      M2462.7,852.7c-38.7,33.2-52.3,92.5-31.9,139.2c9.7,22.2,26.3,42,29.5,66.1c3,23.3-7.2,46-15.4,68.1      c-8,21.8-14.2,44.8-12.5,67.9c2.7,37.8,25.9,73.2,22.1,110.9c-3.6,36.2-31.8,67.8-30.2,104.2c0.5,0-0.5,1.6,0,1.6h90.6l0-560.3      l11.1,0.1L2462.7,852.7z"></path>
			</g>
		</g>
	</g>
	<path class="st2" d="M2763.8,1784.5H474.3c-2.3,0-4.3-1.9-4.3-4.3s1.9-4.3,4.3-4.3h2289.5c2.3,0,4.3,1.9,4.3,4.3   S2766.2,1784.5,2763.8,1784.5z"></path>
	<g>
		<g>
			<g>
				<g>
					<path id="XMLID_260_" class="st33" d="M1172.4,613l-53,6.9c-29.2-13.7-57.4-22.5-83.7-19.8c-26.5,2.8-41.6,30.5-35.1,49.1       c5.7,16.4,53.3,33.2,73.9,33.6s51.7-4.3,63.2-14.5c0,0,0,0,0,0h34.8L1172.4,613L1172.4,613z"></path>
				</g>
				<g>
					<defs>
						<path id="SVGID_00000014607742455720812040000011624963333473817730_" d="M1172.4,613l-53,6.9c-29.2-13.7-57.4-22.5-83.7-19.8        c-26.5,2.8-41.6,30.5-35.1,49.1c5.7,16.4,53.3,33.2,73.9,33.6s51.7-4.3,63.2-14.5c0,0,0,0,0,0h34.8L1172.4,613L1172.4,613z"></path>
					</defs>
					<clipPath id="SVGID_00000109006989985805395890000003138474352148856468_">
						<use xlink:href="#SVGID_00000014607742455720812040000011624963333473817730_" style="overflow:visible;"></use>
					</clipPath>
					<path style="clip-path:url(#SVGID_00000109006989985805395890000003138474352148856468_);fill:#E57492;" d="M1056,685.4       c0,0,10.2-19.9,9.7-35.2s-21.5-39.1-21.5-39.1l-17.4,0.9c0,0,5.7,55.8,0.6,65.7c-5,9.8,0,0,0,0L1056,685.4z"></path>
				</g>
			</g>
			<path class="st35" d="M1137.6,668.3c0,0,10.5-16.1-13.9-32.4c0,0,21.8,3.5,29.2,18c7.5,14.5,5.9,14.7,5.9,14.7L1137.6,668.3z"></path>
		</g>
		<g>
			<g>
				<path id="XMLID_261_" class="st3" d="M1119.4,619.9c0,0-17,1.5-20.3,1.6c-11.9,0.3-23.8,0.9-23.8,0.9s-7.4-24-18.3-19.1      c-16,7.2,2.3,18.5,2.3,18.5s-28.4-4.7-31.2-4.9c-2.8-0.2,21.3,50.6-4.4,66s-54.3,7.3-57.8-32.7s37.4-78.3,75.1-77      C1078.7,574.5,1119.4,619.9,1119.4,619.9z"></path>
			</g>
			<g>
				<defs>
					<path id="SVGID_00000167394389880511099590000004418883109334738564_" d="M1119.4,619.9c0,0-17,1.5-20.3,1.6       c-11.9,0.3-23.8,0.9-23.8,0.9s-7.4-24-18.3-19.1c-16,7.2,2.3,18.5,2.3,18.5s-28.4-4.7-31.2-4.9c-2.8-0.2,21.3,50.6-4.4,66       s-54.3,7.3-57.8-32.7s37.4-78.3,75.1-77C1078.7,574.5,1119.4,619.9,1119.4,619.9z"></path>
				</defs>
				<clipPath id="SVGID_00000098936468507049830420000011438893412071553710_">
					<use xlink:href="#SVGID_00000167394389880511099590000004418883109334738564_" style="overflow:visible;"></use>
				</clipPath>
				<path style="clip-path:url(#SVGID_00000098936468507049830420000011438893412071553710_);fill:#1C056D;" d="M1001.9,690.2      c0,0,19.5-16.4,18.6-34.5c-1-18.1-6.8-46.4-3.9-48.3c2.9-1.9,33,10.1,33,10.1s-5.5-8.1,4.1-12.3s0,0,0,0s15.3,16.7,14.2,18.5      c-1.1,1.8-36.2-1.8-36.2-1.8s13.8,33.9,3.9,53.9C1025.7,695.9,1001.9,690.2,1001.9,690.2"></path>
			</g>
		</g>
		<path class="st0" d="M1118.3,668.7c0,0-8.1-2.3-8.1-16.4c0-14,0-1.4,0-1.4S1118.5,665.9,1118.3,668.7z"></path>
		<path class="st35" d="M1052.5,651.6c0,0,32.3,17.5,35.3,15.7s-2.4-21.5-2.4-21.5s3.5-0.2,4.3,2.9c0.8,3.1,5.4,21.7,0,22    C1084.3,671,1057.8,657.9,1052.5,651.6z"></path>
		<g>
			<g>
				<path id="XMLID_262_" class="st33" d="M1239.1,984.9c0,0-7.9,10.6-10.5,15.9c-2.6,5.3-3.5,31.6-2.9,31.5      c0.5-0.1,6.4-0.4,7.6-3.9l6.5-22.2c0,0,0.4,23.8-0.3,25.5c-0.8,1.7-14.5,29.1-13.3,29.9c1.2,0.9,6.4,4,10.5-2.8      c4.1-6.8,13.6-24.5,14.8-27.3c1.2-2.8-18.8,37.2-18,37.5c0.8,0.3,5.9,3,7.9,0.4s19.9-31,20.5-33.3c0.6-2.3-11.1,27.2-10.5,27.2      s2.9,3,6.1-1s13.9-25.7,14.4-26.8s0.4-14.9,0.4-14.9s2.7,16.2,2,18.3s-5.5,14.4-3.3,14.8c1.7,0.3,4.7-3,7.1-7.3      c2.4-4.3,5.4-10.9,5.1-17c-0.2-6.2-11.6-40.8-11.6-40.8L1239.1,984.9z"></path>
			</g>
			<g>
				<defs>
					<path id="SVGID_00000052079985683352086090000006035058308933615531_" d="M1239.1,984.9c0,0-7.9,10.6-10.5,15.9       c-2.6,5.3-3.5,31.6-2.9,31.5c0.5-0.1,6.4-0.4,7.6-3.9l6.5-22.2c0,0,0.4,23.8-0.3,25.5c-0.8,1.7-14.5,29.1-13.3,29.9       c1.2,0.9,6.4,4,10.5-2.8c4.1-6.8,13.6-24.5,14.8-27.3c1.2-2.8-18.8,37.2-18,37.5c0.8,0.3,5.9,3,7.9,0.4s19.9-31,20.5-33.3       c0.6-2.3-11.1,27.2-10.5,27.2s2.9,3,6.1-1s13.9-25.7,14.4-26.8s0.4-14.9,0.4-14.9s2.7,16.2,2,18.3s-5.5,14.4-3.3,14.8       c1.7,0.3,4.7-3,7.1-7.3c2.4-4.3,5.4-10.9,5.1-17c-0.2-6.2-11.6-40.8-11.6-40.8L1239.1,984.9z"></path>
				</defs>
				<clipPath id="SVGID_00000055700079412865307520000018009387259181053353_">
					<use xlink:href="#SVGID_00000052079985683352086090000006035058308933615531_" style="overflow:visible;"></use>
				</clipPath>
				<path style="clip-path:url(#SVGID_00000055700079412865307520000018009387259181053353_);fill:#E57492;" d="M1222.7,1010.1      c0.5,1.8,24.8-11.7,57.8-6.5c0,0-4.4-20.1-8.1-21.9c-3.6-1.8-32-1.8-36.3,0.2S1220.4,1001.8,1222.7,1010.1z"></path>
			</g>
		</g>
		<g>
			<path class="st11" d="M1535.6,590.1c0-2.1-1.5-3.9-3.6-4.3l-171.9-30.9c-144.2-12.3-187.7,51.5-187.7,51.5v62l16.9-0.1     c12.5,36.5,48,141,51.6,160c4.4,23.1-24,162.1-21,163.9s66.6,9.7,72.5,8.7c5.9-1,35.3-154,33.3-172.5     c-1.5-14.2-5.9-111.6-16.7-160.5l226.6-0.9L1535.6,590.1L1535.6,590.1z"></path>
			<path class="st38" d="M1309,667.8c0,0-4.3-22.7-23.4-38.5c0,0,101.9,20.4,131.5,22.3s118.5-5.9,118.5-5.9v21.1L1309,667.8z"></path>
		</g>
		<path class="st35" d="M2046.7,729c0,0,35.8-8.5,36.7-6.9c0.9,1.6,6,18.1,4,24c-1.9,6-37.2,18.8-37.2,18.8L2046.7,729z"></path>
		<g>
			<g>
				<g>
					<path id="XMLID_264_" class="st3" d="M2074.7,620c0,0-339.4-27.8-409.8-42.6c-70.5-14.8-129.2,17.4-129.2,17.4v72.1       c0,0,182.4,155.4,264.1,157.4c81.8,2,252.8-43.6,254.2-51.1s0-51.8-6.8-54.5c-6.8-2.7-233.1,23.2-237.2,18.4       c-2.7-3.1-41-41.6-74.6-70.2h339.3L2074.7,620L2074.7,620z"></path>
				</g>
				<g>
					<defs>
						<path id="SVGID_00000112619807955793279340000000816696584848592003_" d="M2074.7,620c0,0-339.4-27.8-409.8-42.6        c-70.5-14.8-129.2,17.4-129.2,17.4v72.1c0,0,182.4,155.4,264.1,157.4c81.8,2,252.8-43.6,254.2-51.1s0-51.8-6.8-54.5        c-6.8-2.7-233.1,23.2-237.2,18.4c-2.7-3.1-41-41.6-74.6-70.2h339.3L2074.7,620L2074.7,620z"></path>
					</defs>
					<clipPath id="SVGID_00000137827862240984040230000012047878014556987536_">
						<use xlink:href="#SVGID_00000112619807955793279340000000816696584848592003_" style="overflow:visible;"></use>
					</clipPath>
					<path style="clip-path:url(#SVGID_00000137827862240984040230000012047878014556987536_);fill:#1C056D;" d="M1816.4,783.4       c-1.2,0-2.2,0-2.9-0.1c-0.2,0-0.4,0-0.6-0.1c-0.9-0.2-1.4-1-1.3-1.8c0.2-0.9,1-1.5,1.8-1.3c0.1,0,0.3,0,0.4,0.1       c1,0.1,2.6,0.1,4.6,0.1c0.9,0,1.6,0.7,1.6,1.5c0,0.9-0.7,1.6-1.5,1.6C1817.8,783.3,1817.1,783.4,1816.4,783.4z M1823.8,783       c-0.8,0-1.5-0.6-1.6-1.5c-0.1-0.9,0.6-1.6,1.5-1.7c1.6-0.1,3.4-0.3,5.3-0.4c0.9-0.1,1.7,0.6,1.7,1.4c0.1,0.9-0.6,1.7-1.4,1.7       c-1.9,0.2-3.7,0.3-5.3,0.4C1823.9,783,1823.9,783,1823.8,783z M1834.5,782.1c-0.8,0-1.5-0.6-1.6-1.4c-0.1-0.9,0.6-1.7,1.4-1.7       c1.7-0.2,3.4-0.4,5.3-0.6c0.9-0.1,1.7,0.5,1.8,1.4c0.1,0.9-0.5,1.7-1.4,1.8c-1.8,0.2-3.6,0.4-5.3,0.6       C1834.6,782.1,1834.5,782.1,1834.5,782.1z M1808.2,781.5c-0.2,0-0.4,0-0.6-0.1c-1.4-0.6-3.1-1.4-4.9-2.3       c-0.8-0.4-1.1-1.4-0.7-2.1c0.4-0.8,1.4-1.1,2.1-0.7c1.8,0.9,3.4,1.6,4.7,2.2c0.8,0.3,1.2,1.3,0.8,2.1       C1809.4,781.1,1808.8,781.5,1808.2,781.5z M1845.1,780.9c-0.8,0-1.5-0.6-1.6-1.4c-0.1-0.9,0.5-1.7,1.4-1.8       c1.7-0.2,3.5-0.4,5.3-0.6c0.9-0.1,1.7,0.5,1.8,1.4c0.1,0.9-0.5,1.7-1.4,1.8c-1.8,0.2-3.6,0.4-5.3,0.6       C1845.2,780.9,1845.1,780.9,1845.1,780.9z M1855.6,779.7c-0.8,0-1.5-0.6-1.6-1.4c-0.1-0.9,0.5-1.7,1.4-1.8       c1.7-0.2,3.5-0.4,5.3-0.7c0.9-0.1,1.7,0.5,1.8,1.4c0.1,0.9-0.5,1.7-1.4,1.8c-1.8,0.2-3.6,0.5-5.3,0.7       C1855.8,779.7,1855.7,779.7,1855.6,779.7z M1866.2,778.3c-0.8,0-1.5-0.6-1.6-1.4c-0.1-0.9,0.5-1.7,1.4-1.8       c1.7-0.2,3.5-0.5,5.3-0.7c0.9-0.1,1.7,0.5,1.8,1.4c0.1,0.9-0.5,1.7-1.4,1.8c-1.8,0.2-3.5,0.5-5.3,0.7       C1866.3,778.3,1866.3,778.3,1866.2,778.3z M1876.8,776.9c-0.8,0-1.5-0.6-1.6-1.4c-0.1-0.9,0.5-1.7,1.4-1.8l5.3-0.7       c0.9-0.1,1.7,0.5,1.8,1.4c0.1,0.9-0.5,1.7-1.4,1.8l-5.3,0.7C1876.9,776.9,1876.8,776.9,1876.8,776.9z M1798.6,776.8       c-0.3,0-0.5-0.1-0.8-0.2c-1.5-0.8-3-1.7-4.7-2.6c-0.8-0.4-1-1.4-0.6-2.2c0.4-0.8,1.4-1,2.2-0.6c1.6,0.9,3.2,1.8,4.6,2.6       c0.8,0.4,1.1,1.4,0.6,2.2C1799.7,776.5,1799.2,776.8,1798.6,776.8z M1887.3,775.5c-0.8,0-1.5-0.6-1.6-1.4       c-0.1-0.9,0.5-1.7,1.4-1.8l5.3-0.7c0.9-0.1,1.7,0.5,1.8,1.4s-0.5,1.7-1.4,1.8l-5.3,0.7C1887.5,775.5,1887.4,775.5,1887.3,775.5       z M1897.9,774c-0.8,0-1.5-0.6-1.6-1.4c-0.1-0.9,0.5-1.7,1.4-1.8l5.3-0.7c0.9-0.1,1.7,0.5,1.8,1.4s-0.5,1.7-1.4,1.8l-5.3,0.7       C1898,774,1897.9,774,1897.9,774z M1908.4,772.5c-0.8,0-1.5-0.6-1.6-1.4c-0.1-0.9,0.5-1.7,1.4-1.8l5.3-0.8       c0.9-0.1,1.7,0.5,1.8,1.3c0.1,0.9-0.5,1.7-1.3,1.8l-5.3,0.8C1908.5,772.5,1908.5,772.5,1908.4,772.5z M1789.3,771.5       c-0.3,0-0.6-0.1-0.8-0.2c-1.5-0.9-3-1.8-4.6-2.7c-0.8-0.5-1-1.4-0.5-2.2c0.5-0.8,1.4-1,2.2-0.5c1.6,0.9,3.1,1.9,4.6,2.7       c0.8,0.4,1,1.4,0.6,2.2C1790.4,771.2,1789.9,771.5,1789.3,771.5z M1918.9,771c-0.8,0-1.5-0.6-1.6-1.4c-0.1-0.9,0.5-1.7,1.3-1.8       l5.3-0.8c0.9-0.1,1.7,0.5,1.8,1.3c0.1,0.9-0.5,1.7-1.3,1.8l-5.3,0.8C1919.1,771,1919,771,1918.9,771z M1929.5,769.5       c-0.8,0-1.5-0.6-1.6-1.4c-0.1-0.9,0.5-1.7,1.3-1.8l5.3-0.8c0.9-0.1,1.7,0.5,1.8,1.3c0.1,0.9-0.5,1.7-1.3,1.8l-5.3,0.8       C1929.6,769.5,1929.5,769.5,1929.5,769.5z M1940,767.9c-0.8,0-1.5-0.6-1.6-1.4c-0.1-0.9,0.5-1.7,1.3-1.8l5.3-0.8       c0.9-0.1,1.7,0.5,1.8,1.3c0.1,0.9-0.5,1.7-1.3,1.8l-5.3,0.8C1940.2,767.9,1940.1,767.9,1940,767.9z M1950.5,766.3       c-0.8,0-1.5-0.6-1.6-1.4c-0.1-0.9,0.5-1.7,1.3-1.8l5.3-0.8c0.9-0.1,1.7,0.5,1.8,1.3c0.1,0.9-0.5,1.7-1.3,1.8l-5.3,0.8       C1950.7,766.3,1950.6,766.3,1950.5,766.3z M1780.2,766c-0.3,0-0.6-0.1-0.8-0.2c-1.5-0.9-3-1.8-4.5-2.8c-0.7-0.5-1-1.5-0.5-2.2       c0.5-0.7,1.4-1,2.2-0.5c1.5,1,3,1.9,4.5,2.8c0.8,0.5,1,1.4,0.5,2.2C1781.3,765.7,1780.7,766,1780.2,766z M1961,764.7       c-0.8,0-1.5-0.6-1.6-1.4c-0.1-0.9,0.5-1.7,1.3-1.8l5.3-0.8c0.9-0.1,1.7,0.5,1.8,1.3c0.1,0.9-0.5,1.7-1.3,1.8l-5.3,0.8       C1961.2,764.7,1961.1,764.7,1961,764.7z M1971.6,763.1c-0.8,0-1.5-0.6-1.6-1.4c-0.1-0.9,0.5-1.7,1.3-1.8l5.3-0.8       c0.9-0.1,1.7,0.5,1.8,1.3c0.1,0.9-0.5,1.7-1.3,1.8l-5.3,0.8C1971.7,763.1,1971.7,763.1,1971.6,763.1z M1982.1,761.5       c-0.8,0-1.5-0.6-1.6-1.4c-0.1-0.9,0.5-1.7,1.3-1.8l5.3-0.8c0.9-0.1,1.7,0.5,1.8,1.3c0.1,0.9-0.5,1.7-1.3,1.8l-5.3,0.8       C1982.3,761.5,1982.2,761.5,1982.1,761.5z M1771.2,760.4c-0.3,0-0.6-0.1-0.9-0.2c-1.5-0.9-3-1.9-4.5-2.9       c-0.7-0.5-1-1.5-0.5-2.2c0.5-0.7,1.5-1,2.2-0.5c1.5,1,3,1.9,4.5,2.9c0.7,0.5,1,1.5,0.5,2.2       C1772.2,760.1,1771.7,760.4,1771.2,760.4z M1992.6,759.9c-0.8,0-1.5-0.6-1.6-1.3c-0.1-0.9,0.5-1.7,1.3-1.8l5.3-0.8       c0.9-0.1,1.7,0.5,1.8,1.3c0.1,0.9-0.5,1.7-1.3,1.8l-5.3,0.8C1992.8,759.9,1992.7,759.9,1992.6,759.9z M2003.1,758.3       c-0.8,0-1.5-0.6-1.6-1.3c-0.1-0.9,0.5-1.7,1.3-1.8l5.3-0.8c0.9-0.1,1.7,0.5,1.8,1.3c0.1,0.9-0.5,1.7-1.3,1.8l-5.3,0.8       C2003.3,758.3,2003.2,758.3,2003.1,758.3z M2013.7,756.6c-0.8,0-1.4-0.6-1.6-1.3c-0.1-0.9,0.5-1.7,1.3-1.8l5.3-0.8       c0.9-0.1,1.7,0.5,1.8,1.3c0.1,0.9-0.5,1.7-1.3,1.8l-5.3,0.8C2013.8,756.6,2013.7,756.6,2013.7,756.6z M2024.2,755       c-0.8,0-1.4-0.6-1.6-1.3c-0.1-0.9,0.5-1.7,1.3-1.8l5.3-0.8c0.9-0.1,1.7,0.5,1.8,1.3c0.1,0.9-0.5,1.7-1.3,1.8l-5.3,0.8       C2024.3,755,2024.3,755,2024.2,755z M1762.2,754.6c-0.3,0-0.6-0.1-0.9-0.3c-1.5-1-3-1.9-4.5-2.9c-0.7-0.5-0.9-1.5-0.5-2.2       c0.5-0.7,1.5-0.9,2.2-0.5c1.5,1,3,1.9,4.5,2.9c0.7,0.5,1,1.5,0.5,2.2C1763.2,754.4,1762.7,754.6,1762.2,754.6z M2034.7,753.3       c-0.8,0-1.4-0.6-1.6-1.3c-0.1-0.9,0.5-1.7,1.3-1.8l5.3-0.8c0.9-0.1,1.7,0.5,1.8,1.3c0.1,0.9-0.5,1.7-1.3,1.8l-5.3,0.8       C2034.9,753.3,2034.8,753.3,2034.7,753.3z M2045.2,751.6c-0.8,0-1.4-0.6-1.6-1.3c-0.1-0.9,0.5-1.7,1.3-1.8l5.3-0.8       c0.9-0.1,1.7,0.5,1.8,1.3c0.1,0.9-0.5,1.7-1.3,1.8l-5.3,0.8C2045.4,751.6,2045.3,751.6,2045.2,751.6z M2055.8,749.9       c-0.8,0-1.4-0.6-1.6-1.3c-0.1-0.9,0.5-1.7,1.3-1.8l5.3-0.9c0.9-0.1,1.7,0.4,1.8,1.3c0.1,0.9-0.4,1.7-1.3,1.8l-5.3,0.9       C2056,749.9,2055.9,749.9,2055.8,749.9z M1753.3,748.8c-0.3,0-0.6-0.1-0.9-0.3c-1.5-1-3-1.9-4.4-2.9c-0.7-0.5-0.9-1.5-0.5-2.2       c0.5-0.7,1.5-0.9,2.2-0.5c1.5,1,3,2,4.4,2.9c0.7,0.5,0.9,1.5,0.5,2.2C1754.3,748.6,1753.8,748.8,1753.3,748.8z M1744.4,742.9       c-0.3,0-0.6-0.1-0.9-0.3c-1.5-1-2.9-2-4.4-3c-0.7-0.5-0.9-1.5-0.4-2.2c0.5-0.7,1.5-0.9,2.2-0.4c1.5,1,3,2,4.4,2.9       c0.7,0.5,0.9,1.5,0.4,2.2C1745.4,742.7,1744.9,742.9,1744.4,742.9z M1735.5,737c-0.3,0-0.6-0.1-0.9-0.3l-4.4-3       c-0.7-0.5-0.9-1.5-0.4-2.2c0.5-0.7,1.5-0.9,2.2-0.4l4.4,3c0.7,0.5,0.9,1.5,0.4,2.2C1736.6,736.8,1736.1,737,1735.5,737z        M1726.7,731.1c-0.3,0-0.6-0.1-0.9-0.3l-4.4-3c-0.7-0.5-0.9-1.5-0.4-2.2c0.5-0.7,1.5-0.9,2.2-0.4l4.4,3       c0.7,0.5,0.9,1.5,0.4,2.2C1727.7,730.8,1727.2,731.1,1726.7,731.1z M1717.9,725.1c-0.3,0-0.6-0.1-0.9-0.3l-4.4-3       c-0.7-0.5-0.9-1.5-0.4-2.2c0.5-0.7,1.5-0.9,2.2-0.4l4.4,3c0.7,0.5,0.9,1.5,0.4,2.2C1718.9,724.9,1718.4,725.1,1717.9,725.1z        M1709.1,719.1c-0.3,0-0.6-0.1-0.9-0.3l-4.4-3c-0.7-0.5-0.9-1.5-0.4-2.2c0.5-0.7,1.5-0.9,2.2-0.4l4.4,3       c0.7,0.5,0.9,1.5,0.4,2.2C1710.1,718.9,1709.6,719.1,1709.1,719.1z M1700.4,713.1c-0.3,0-0.6-0.1-0.9-0.3l-4.4-3       c-0.7-0.5-0.9-1.5-0.4-2.2c0.5-0.7,1.5-0.9,2.2-0.4l4.4,3c0.7,0.5,0.9,1.5,0.4,2.2C1701.4,712.8,1700.9,713.1,1700.4,713.1z        M1691.6,707c-0.3,0-0.6-0.1-0.9-0.3l-4.4-3c-0.7-0.5-0.9-1.5-0.4-2.2c0.5-0.7,1.5-0.9,2.2-0.4l4.4,3c0.7,0.5,0.9,1.5,0.4,2.2       C1692.6,706.8,1692.1,707,1691.6,707z M1682.9,700.9c-0.3,0-0.6-0.1-0.9-0.3l-4.4-3c-0.7-0.5-0.9-1.5-0.4-2.2       c0.5-0.7,1.5-0.9,2.2-0.4l4.4,3c0.7,0.5,0.9,1.5,0.4,2.2C1683.9,700.7,1683.4,700.9,1682.9,700.9z M1674.1,694.8       c-0.3,0-0.6-0.1-0.9-0.3l-4.3-3c-0.7-0.5-0.9-1.5-0.4-2.2c0.5-0.7,1.5-0.9,2.2-0.4l4.4,3c0.7,0.5,0.9,1.5,0.4,2.2       C1675.1,694.6,1674.6,694.8,1674.1,694.8z M1665.4,688.7c-0.3,0-0.6-0.1-0.9-0.3l-4.4-3.1c-0.7-0.5-0.9-1.5-0.4-2.2       c0.5-0.7,1.5-0.9,2.2-0.4l4.4,3.1c0.7,0.5,0.9,1.5,0.4,2.2C1666.4,688.5,1665.9,688.7,1665.4,688.7z M1656.7,682.6       c-0.3,0-0.6-0.1-0.9-0.3l-4.4-3.1c-0.7-0.5-0.9-1.5-0.4-2.2c0.5-0.7,1.5-0.9,2.2-0.4l4.4,3.1c0.7,0.5,0.9,1.5,0.4,2.2       C1657.7,682.4,1657.2,682.6,1656.7,682.6z M1648,676.5c-0.3,0-0.6-0.1-0.9-0.3l-4.4-3.1c-0.7-0.5-0.9-1.5-0.4-2.2       c0.5-0.7,1.5-0.9,2.2-0.4l4.4,3.1c0.7,0.5,0.9,1.5,0.4,2.2C1649,676.3,1648.5,676.5,1648,676.5z M1639.3,670.4       c-0.3,0-0.6-0.1-0.9-0.3l-4.3-3.1c-0.7-0.5-0.9-1.5-0.4-2.2c0.5-0.7,1.5-0.9,2.2-0.4l4.3,3.1c0.7,0.5,0.9,1.5,0.4,2.2       C1640.3,670.1,1639.8,670.4,1639.3,670.4z M1630.6,664.2c-0.3,0-0.6-0.1-0.9-0.3l-4.3-3.1c-0.7-0.5-0.9-1.5-0.4-2.2       c0.5-0.7,1.5-0.9,2.2-0.4l4.3,3.1c0.7,0.5,0.9,1.5,0.4,2.2C1631.6,664,1631.1,664.2,1630.6,664.2z M1621.9,658       c-0.3,0-0.6-0.1-0.9-0.3l-4.4-3.1c-0.7-0.5-0.9-1.5-0.4-2.2c0.5-0.7,1.5-0.9,2.2-0.4l4.4,3.1c0.7,0.5,0.9,1.5,0.4,2.2       C1622.9,657.8,1622.4,658,1621.9,658z M1613.2,651.9c-0.3,0-0.6-0.1-0.9-0.3l-4.4-3.1c-0.7-0.5-0.9-1.5-0.4-2.2       c0.5-0.7,1.5-0.9,2.2-0.4l4.4,3.1c0.7,0.5,0.9,1.5,0.4,2.2C1614.2,651.7,1613.7,651.9,1613.2,651.9z M1604.5,645.7       c-0.3,0-0.6-0.1-0.9-0.3c-2-1.4-3.5-2.4-4.4-3c-0.7-0.5-0.9-1.5-0.4-2.2c0.5-0.7,1.5-0.9,2.2-0.4c0.9,0.6,2.4,1.6,4.5,3.1       c0.7,0.5,0.9,1.5,0.4,2.2C1605.5,645.5,1605,645.7,1604.5,645.7z"></path>
				</g>
				<g>
					<defs>
						<path id="SVGID_00000181810074863399445910000007225829462303151494_" d="M2074.7,620c0,0-339.4-27.8-409.8-42.6        c-70.5-14.8-129.2,17.4-129.2,17.4v72.1c0,0,182.4,155.4,264.1,157.4c81.8,2,252.8-43.6,254.2-51.1s0-51.8-6.8-54.5        c-6.8-2.7-233.1,23.2-237.2,18.4c-2.7-3.1-41-41.6-74.6-70.2h339.3L2074.7,620L2074.7,620z"></path>
					</defs>
					<clipPath id="SVGID_00000176761533551915785340000004031176105887872427_">
						<use xlink:href="#SVGID_00000181810074863399445910000007225829462303151494_" style="overflow:visible;"></use>
					</clipPath>
					<path style="clip-path:url(#SVGID_00000176761533551915785340000004031176105887872427_);fill:#1C056D;" d="M1547.6,585.3       c0,0,3,95.2,1.5,96.7s-18.3-10.8-18.3-10.8s-2-75.9-0.4-80.7C1532,585.8,1547.6,585.3,1547.6,585.3z"></path>
				</g>
				<g>
					<defs>
						<path id="SVGID_00000090279709832567308520000001907506608148469181_" d="M2074.7,620c0,0-339.4-27.8-409.8-42.6        c-70.5-14.8-129.2,17.4-129.2,17.4v72.1c0,0,182.4,155.4,264.1,157.4c81.8,2,252.8-43.6,254.2-51.1s0-51.8-6.8-54.5        c-6.8-2.7-233.1,23.2-237.2,18.4c-2.7-3.1-41-41.6-74.6-70.2h339.3L2074.7,620L2074.7,620z"></path>
					</defs>
					<clipPath id="SVGID_00000159438208100006545410000013098434775977376696_">
						<use xlink:href="#SVGID_00000090279709832567308520000001907506608148469181_" style="overflow:visible;"></use>
					</clipPath>
					<path style="clip-path:url(#SVGID_00000159438208100006545410000013098434775977376696_);fill:#1C056D;" d="M1735.4,666.9       c0,0-73-60.1-84.2-63c0,0,73.7,16.6,130.7,32.9c57,16.2,298.4,12.9,298.4,12.9v24.1L1735.4,666.9"></path>
				</g>
			</g>
		</g>
		<g>
			<g>
				<path id="XMLID_263_" class="st3" d="M2082.1,721.9c0,0,5.8-9.3,16.6-10.8s14.4,0,14.4,0s29.1,78.9,23.8,80.6      c-5.3,1.7-17.2,1.9-20.8-1.4s-31-41.5-31-41.5S2086.9,728.2,2082.1,721.9z"></path>
			</g>
			<g>
				<defs>
					<path id="SVGID_00000027596815411905577630000016515207654440061862_" d="M2082.1,721.9c0,0,5.8-9.3,16.6-10.8s14.4,0,14.4,0       s29.1,78.9,23.8,80.6c-5.3,1.7-17.2,1.9-20.8-1.4s-31-41.5-31-41.5S2086.9,728.2,2082.1,721.9z"></path>
				</defs>
				<clipPath id="SVGID_00000052818724253687397110000006820975009945379249_">
					<use xlink:href="#SVGID_00000027596815411905577630000016515207654440061862_" style="overflow:visible;"></use>
				</clipPath>
				<path style="clip-path:url(#SVGID_00000052818724253687397110000006820975009945379249_);fill:#1C056D;" d="M2090.3,759.3      c0,0,7.7-8.8,11.5-8.6c2.3,0.1,3.3,1.7,3.7,2.9c0.3,0.7,0.1,1.6-0.4,2.2c-2.2,2.5-8.5,9.5-9.8,9.2      C2093.6,764.5,2090.3,759.3,2090.3,759.3z"></path>
			</g>
			<g>
				<defs>
					<path id="SVGID_00000000199864720475185570000010524720474297032344_" d="M2082.1,721.9c0,0,5.8-9.3,16.6-10.8s14.4,0,14.4,0       s29.1,78.9,23.8,80.6c-5.3,1.7-17.2,1.9-20.8-1.4s-31-41.5-31-41.5S2086.9,728.2,2082.1,721.9z"></path>
				</defs>
				<clipPath id="SVGID_00000042002458248739453960000006053966805534677661_">
					<use xlink:href="#SVGID_00000000199864720475185570000010524720474297032344_" style="overflow:visible;"></use>
				</clipPath>
				<path style="clip-path:url(#SVGID_00000042002458248739453960000006053966805534677661_);fill:#1C056D;" d="M2098.1,770.8      c0,0,7.7-8.8,11.5-8.6c2.3,0.1,3.3,1.7,3.7,2.9c0.3,0.7,0.1,1.6-0.4,2.2c-2.2,2.5-8.5,9.5-9.8,9.2      C2101.3,775.9,2098.1,770.8,2098.1,770.8z"></path>
			</g>
			<g>
				<defs>
					<path id="SVGID_00000016790917413241471550000015069324634746500514_" d="M2082.1,721.9c0,0,5.8-9.3,16.6-10.8s14.4,0,14.4,0       s29.1,78.9,23.8,80.6c-5.3,1.7-17.2,1.9-20.8-1.4s-31-41.5-31-41.5S2086.9,728.2,2082.1,721.9z"></path>
				</defs>
				<clipPath id="SVGID_00000078028454375433318830000000277835826594792089_">
					<use xlink:href="#SVGID_00000016790917413241471550000015069324634746500514_" style="overflow:visible;"></use>
				</clipPath>
				<path style="clip-path:url(#SVGID_00000078028454375433318830000000277835826594792089_);fill:#1C056D;" d="M2105.3,709.2      c0,0,27.3,81.8,27.1,85.2c0,0,9.1-0.6,9.1-2.8s-22.4-82-25.2-82.3C2113.4,708.8,2105.3,709.2,2105.3,709.2z"></path>
			</g>
		</g>
		<g>
			<path class="st35" d="M2074.7,636.3c0,0,33.5,4.7,34.2,6.3s0.8,24.3,0.8,24.3l-34.9,0.1V636.3z"></path>
			<g>
				<g>
					<path id="XMLID_265_" class="st3" d="M2107.4,641.9c0,0,3.9-9.9,15.5-10.6s38.5,13.7,40.9,14.7c2.4,1,34.9,9.8,35.5,10       c7,3.5,0.8,11.8,0.8,11.8l-90.5-1.1L2107.4,641.9z"></path>
				</g>
				<g>
					<defs>
						<path id="SVGID_00000048461208282432469110000004304704863726520760_" d="M2107.4,641.9c0,0,3.9-9.9,15.5-10.6        s38.5,13.7,40.9,14.7c2.4,1,34.9,9.8,35.5,10c7,3.5,0.8,11.8,0.8,11.8l-90.5-1.1L2107.4,641.9z"></path>
					</defs>
					<clipPath id="SVGID_00000104694096468331718070000007112634516092947072_">
						<use xlink:href="#SVGID_00000048461208282432469110000004304704863726520760_" style="overflow:visible;"></use>
					</clipPath>
					<path style="clip-path:url(#SVGID_00000104694096468331718070000007112634516092947072_);fill:#1C056D;" d="M2116.7,631.4       c1.1,1,40,19.5,45.8,20.3c5.8,0.7,41.4,10.3,41.4,10.3s1.9-4.9-1.2-6.7c-3.2-1.8-37.6-10-40.3-11.6       c-2.7-1.5-35.9-14.9-38.7-14.5C2120.9,629.7,2116.7,631.4,2116.7,631.4z"></path>
				</g>
				<g>
					<defs>
						<path id="SVGID_00000079444618204975197330000014793359695400991632_" d="M2107.4,641.9c0,0,3.9-9.9,15.5-10.6        s38.5,13.7,40.9,14.7c2.4,1,34.9,9.8,35.5,10c7,3.5,0.8,11.8,0.8,11.8l-90.5-1.1L2107.4,641.9z"></path>
					</defs>
					<clipPath id="SVGID_00000088119394599211652580000004365478820955321772_">
						<use xlink:href="#SVGID_00000079444618204975197330000014793359695400991632_" style="overflow:visible;"></use>
					</clipPath>
					<path style="clip-path:url(#SVGID_00000088119394599211652580000004365478820955321772_);fill:#1C056D;" d="M2126.5,668.8       c0.7-2.6,3.3-15,5.2-15.4c1.9-0.4,6.6,0.9,6.5,1.6s-1.1,14.3-4.3,14.3C2130.8,669.2,2126.5,668.8,2126.5,668.8z"></path>
				</g>
				<g>
					<defs>
						<path id="SVGID_00000149361943711120629900000006590478548541477504_" d="M2107.4,641.9c0,0,3.9-9.9,15.5-10.6        s38.5,13.7,40.9,14.7c2.4,1,34.9,9.8,35.5,10c7,3.5,0.8,11.8,0.8,11.8l-90.5-1.1L2107.4,641.9z"></path>
					</defs>
					<clipPath id="SVGID_00000112600580472534286800000006543827473703635877_">
						<use xlink:href="#SVGID_00000149361943711120629900000006590478548541477504_" style="overflow:visible;"></use>
					</clipPath>
					<path style="clip-path:url(#SVGID_00000112600580472534286800000006543827473703635877_);fill:#1C056D;" d="M2144.9,672.3       c0.7-2.6,3.3-15,5.2-15.4c1.9-0.4,6.6,0.9,6.5,1.6s-1.1,14.3-4.3,14.3C2149.2,672.8,2144.9,672.3,2144.9,672.3z"></path>
				</g>
			</g>
		</g>
	</g>
</g>
</svg>
