<?xml version="1.0"?>
<svg xmlns="http://www.w3.org/2000/svg" viewBox="32 0 79 79" width="32" height="32">
  <svg id="Ebene_1" data-name="Ebene 1" viewBox="0 0 143.93 79.11" fill="currentColor" width="143.93" data-manipulated-width="true" height="79.11" data-manipulated-height="true">
  <path d="M79.22,28.28l.61.6,4.58-4.69-.46-.61-4.73,4.69ZM72.81,29.19c-.15-.3-.31-.76-.31-1.06v-8.62c0-.61.15-1.21.61-1.66,0-.15.15-.15.15-.3l2.75-2.72-2.75-2.57c-.46-.45-.76-1.21-.76-1.81V2.57c0-1.36,1.22-2.57,2.6-2.57h.61c1.37,0,2.6,1.21,2.6,2.57v1.06l1.83-1.81c1.07-1.06,2.75-1.06,3.66,0l.31.3c1.07,1.06,1.07,2.72,0,3.63l-4.73,4.69.61.6,5.65-5.6c1.07-1.06,2.75-1.06,3.66,0l.15.15c1.07,1.06,1.07,2.72,0,3.63l-10.23,10.43.61.6,9.62-9.68c1.07-1.06,2.75-1.06,3.66,0h.15c1.07,1.06,1.07,2.57,0,3.63l-5.34,5.44.61.6,2.75-2.72c1.07-1.06,2.75-1.06,3.66,0l.15.15c1.07,1.06,1.07,2.57,0,3.63l-6.87,6.81.61.6,4.27-4.23,2.14,2.12c1.07,1.06,1.07,2.72,0,3.63l-4.88,4.54c-.92.91-2.44,1.06-3.36.3l-2.9-2.87-5.8,5.75c-1.07,1.06-2.75,1.06-3.66,0l-.31-.15c-1.07-1.06-1.07-2.72,0-3.63l1.68-1.66-2.14-2.12-.31-.15-.31-.3c-.15-.3-.46-.45-.46-.76ZM59.22,24.2l4.73,4.69.61-.6-4.73-4.69-.61.61ZM48.84,21.48c-1.07-1.06-1.07-2.72,0-3.63l.15-.15c1.07-1.06,2.75-1.06,3.66,0l2.75,2.72.61-.6-5.65-5.6c-1.07-1.06-1.07-2.57,0-3.63h.15c1.07-1.06,2.75-1.06,3.66,0l9.77,9.68.61-.6-10.38-10.13c-1.07-1.06-1.07-2.72,0-3.63l.15-.15c1.07-1.06,2.75-1.06,3.66,0l5.65,5.59.61-.6-4.73-4.69c-1.07-1.06-1.07-2.72,0-3.63l.31-.3c1.07-1.06,2.59-1.06,3.66,0l1.83,1.81v-1.36c0-1.36,1.22-2.57,2.6-2.57h.76c1.37,0,2.6,1.21,2.6,2.57v7.86c0,.76-.31,1.36-.76,1.81l-2.75,2.72,2.75,2.72.15.3c.46.45.61,1.06.61,1.66v8.47c0,.76-.31,1.36-.76,1.81l-.15.15-.15.15-.15.15-2.29,2.27,1.53,1.66c1.07,1.06,1.07,2.72,0,3.63l-.15.15c-1.07,1.06-2.75,1.06-3.66,0l-3.36-3.33-2.44-2.42-2.6,2.42-.31.3c-1.07.76-2.44.6-3.36-.3l-4.43-4.54c-1.07-1.06-1.07-2.57,0-3.63l2.14-1.97,4.27,4.24.61-.6-7.17-6.81Z" fill="currentColor" stroke-width="0"/>
  <path d="M106.23,39.62h1.53v.45c.31,1.97,2.9,2.57,4.12.91,1.22-1.66-.31-3.93-2.29-3.48-.31,0-.61.15-.76.3l-4.73-4.69,2.59-2.57c1.07-1.06,1.07-2.57,0-3.63l-3.36-3.33c-1.07-1.06-2.75-1.06-3.66,0l-3.21,3.18c.92,1.36.92,3.18-.15,4.54l-1.53,1.51,4.88,4.84c-1.83.45-2.44,2.87-.76,4.08,1.53,1.21,3.82,0,3.66-1.97h1.68c-2.14,1.21-1.22,4.24,1.07,4.24,2.14-.15,2.9-3.33.92-4.39ZM87.46,44.01c.15-1.06-.61-2.27-1.68-2.57l.92-.91c1.07-1.06,1.07-2.57,0-3.63l-2.75-2.57-7.48,7.41c-.31-.15-.46-.3-.76-.3-1.98-.3-3.51,1.97-2.29,3.63,1.22,1.66,3.82,1.06,4.12-1.06v-.45h1.53c-1.68,1.06-1.22,3.63.76,4.08,2.44.15,3.36-2.87,1.37-4.23h1.68c.31,2.42,3.82,2.87,4.58.6ZM45.79,40.08c.15-1.06-.61-2.12-1.68-2.57l3.05-3.03,1.98-1.97-1.53-1.51c-1.07-1.36-1.22-3.18-.15-4.54l-3.2-3.18c-1.07-1.06-2.75-1.06-3.66,0l-3.36,3.33c-1.07,1.06-1.07,2.72,0,3.63l2.6,2.57-4.88,4.99c-.31-.15-.46-.3-.76-.3-1.98-.3-3.51,1.97-2.29,3.63,1.22,1.66,3.82,1.06,4.12-1.06v-.45h1.53c-.61.3-1.07.91-1.07,1.51-.31,1.82,1.53,3.33,3.2,2.42,1.68-.76,1.68-3.18.15-4.08h1.68c.15,2.57,3.51,2.87,4.27.6ZM61.36,45.82c-.15-.91.3-1.81,1.22-2.27h-1.68c.15,1.97-1.98,3.18-3.66,1.97s-1.07-3.63.76-4.08l-.92-.91c-1.07-1.06-1.07-2.72,0-3.63l2.6-2.57,7.63,7.56c.31-.15.46-.3.76-.3,1.98-.3,3.51,1.97,2.29,3.63-1.22,1.66-3.82,1.06-4.12-1.06v-.45h-1.53c1.53.76,1.68,2.87.31,3.93-1.53.76-3.51-.15-3.66-1.82Z" fill="currentColor" stroke-width="0"/>
  <path d="M143.93,66.54v-2.57h-10.84v14.82h10.84v-2.57h-7.63v-3.48h6.87v-2.57h-6.87v-3.63h7.63ZM107.61,63.97v2.72h4.43v12.1h3.21v-12.1h8.85v12.1h3.21v-12.1h4.43v-2.72h-24.12ZM102.87,78.64h3.36v-14.82h-3.36v14.82ZM92.5,71.08h-.15l-5.34-7.11h-2.44v14.82h3.05v-9.38l3.66,5.14h1.53l3.66-5.14h.15v9.22h3.05v-14.82h-1.98l-5.19,7.26ZM74.79,71.38c0-2.42-1.37-4.54-4.27-4.54-2.75,0-4.12,2.27-4.12,4.54s1.37,4.54,4.27,4.54,4.12-2.27,4.12-4.54ZM78.15,71.38c0,3.93-2.59,7.56-7.33,7.56s-7.33-3.63-7.33-7.56,2.59-7.56,7.33-7.56c4.12-.15,7.48,3.33,7.33,7.56ZM58,78.64h3.36v-14.82h-3.36v14.82ZM52.81,71.38c.15-2.72-2.14-4.84-4.89-4.69h-2.14v9.38h2.14c2.75,0,5.04-2.12,4.89-4.69ZM56.02,71.38c0,4.39-3.66,7.71-7.94,7.56h-5.34v-14.97h5.34c5.19-.15,7.94,3.48,7.94,7.41ZM36.78,72.14c0,2.12-1.07,4.08-3.36,4.08-2.44,0-3.36-1.81-3.36-4.08v-8.01h-3.36v8.47c0,3.78,1.98,6.5,6.71,6.5,4.27,0,6.72-2.72,6.72-6.5v-8.47h-3.36v8.01ZM13.13,66.69h4.43v12.1h3.2v-12.1h4.43v-2.72h-12.06v2.72ZM3.51,68.05c0-1.21,1.07-1.66,2.59-1.66s3.05.45,4.43,1.51l1.53-1.97c-1.53-1.51-3.66-2.27-5.95-2.27-3.82,0-6.11,2.12-6.11,4.39,0,5.44,8.85,4.08,8.85,6.65,0,1.21-1.37,1.66-2.44,1.66-1.68,0-3.36-.61-4.73-1.66l-1.68,1.97c1.68,1.66,3.97,2.57,6.41,2.42,3.82,0,5.95-1.82,5.95-4.39,0-5.29-9-4.08-8.85-6.65Z" fill="currentColor" stroke-width="0"/>
</svg>
</svg>
