<?xml version="1.0"?>
<svg xmlns="http://www.w3.org/2000/svg" viewBox="667 0 310 310" width="32" height="32">
  <svg id="Ebene_1" data-name="Ebene 1" viewBox="0 0 1644.28 310.9" fill="currentColor" width="1644.28" data-manipulated-width="true" height="310.9" data-manipulated-height="true">
  <path d="M1070.78,102.6v78h-29.3v-86.5h-48.5v86.5h-29.3v-113h70.6c21.1-.1,36.5,14,36.5,35Z" fill="currentColor" stroke-width="0"/>
  <path d="M1200.68,133.3h-80.3c1.8,18.9,10.2,26.8,27.9,26.8,13.4,0,19.1-3.9,24.7-15.9l25.4,9.2c-7.6,19.6-25.4,29.5-50.8,29.5-34.6,0-57.7-23.1-57.7-58.1s23.3-59.5,56.8-59.5,54.2,22.4,54.2,57.2c0,3.6,0,6.2-.2,10.8ZM1120.38,113.2h51.4c-.5-19.1-8.3-25.8-24.9-25.8-16.3,0-24.4,7.6-26.5,25.8Z" fill="currentColor" stroke-width="0"/>
  <path d="M1327.28,67.5v66.5c0,29.8-21.7,48.9-53.8,48.9s-53.3-19.1-53.3-48.9v-66.5h29.3v67.4c0,17.5,7.6,22.1,24,22.1s24.4-4.6,24.4-22.1v-67.4h29.4Z" fill="currentColor" stroke-width="0"/>
  <path d="M1344.18,149.4l27.4-7.6c1.8,14.8,9.7,18.7,24,18.7,11.3,0,18.5-3.9,18.5-11.5,0-6.9-3.2-10.4-16.6-12.5l-18.9-3c-19.8-3.2-32.1-14.5-32.1-33.9,0-21.7,16.8-34.4,45.2-34.4,30.7,0,44.5,12.7,48.2,32.8l-25.8,6.2c-1.6-14.3-7.2-17.8-21.5-17.8-11.1,0-16.6,4.1-16.6,11.8,0,6.2,3,10.1,14.1,11.8l23.1,3.5c18.7,2.5,30.2,13.9,30.2,32.3,0,23.3-18.4,37.1-49.6,37.1-29.1,0-46.6-15-49.6-33.5Z" fill="currentColor" stroke-width="0"/>
  <path d="M1488.68,93.4v61.4h35.4v25.8h-29.9c-21,0-34.8-14.1-34.8-35.1V39h29.3v28.6h38.4v25.8s-38.4,0-38.4,0Z" fill="currentColor" stroke-width="0"/>
  <path d="M397.78,93.4v61.4h35.4v25.8h-29.9c-21,0-34.8-14.1-34.8-35.1V39h29.3v28.6h38.4v25.8s-38.4,0-38.4,0Z" fill="currentColor" stroke-width="0"/>
  <path d="M557.98,133.3h-80.3c1.8,18.9,10.2,26.8,27.9,26.8,13.4,0,19.1-3.9,24.7-15.9l25.4,9.2c-7.6,19.6-25.4,29.5-50.7,29.5-34.6,0-57.7-23.1-57.7-58.1s23.3-59.5,56.8-59.5,54.2,22.4,54.2,57.2c0,3.6,0,6.2-.3,10.8ZM477.78,113.2h51.4c-.5-19.1-8.3-25.8-24.9-25.8-16.4,0-24.5,7.6-26.5,25.8Z" fill="currentColor" stroke-width="0"/>
  <path d="M893.38,102.6v78h-29.3v-86.5h-48.4v86.5h-29.3v-86.5h-48.5v86.5h-29.3v-113h148.3c21-.1,36.5,14,36.5,35Z" fill="currentColor" stroke-width="0"/>
  <path d="M631.78,65.2c-28.2,0-45.3,15.1-49,33.2l26.3,6.3c2.4-11,10.5-15.8,21.6-15.8,15.5,0,21.5,5.8,21.5,19.1v8.1h-13.4c-43.4,0-61.6,12.9-61.6,35.5,0,19.4,14.3,31.1,36.9,31.1,18.9,0,32.1-8.5,38.1-26.3v24h29.1v-73.4c-.2-26.3-19.1-41.8-49.5-41.8ZM623.88,161.9c-11.8,0-17.3-4.4-17.3-12.7,0-10.6,12-16.8,33.7-16.8h11.8c0,19.8-13.4,29.5-28.2,29.5Z" fill="currentColor" stroke-width="0"/>
  <path d="M1594.78,65.2c-28.2,0-45.3,15.1-49,33.2l26.3,6.3c2.4-11,10.5-15.8,21.6-15.8,15.5,0,21.5,5.8,21.5,19.1v8.1h-13.4c-43.4,0-61.6,12.9-61.6,35.5,0,19.4,14.3,31.1,36.9,31.1,18.9,0,32.1-8.5,38.1-26.3v24h29.1v-73.4c-.2-26.3-19.1-41.8-49.5-41.8ZM1586.88,161.9c-11.8,0-17.3-4.4-17.3-12.7,0-10.6,12-16.8,33.7-16.8h11.8c0,19.8-13.4,29.5-28.2,29.5Z" fill="currentColor" stroke-width="0"/>
  <path d="M972.98,257.3v28h12.3v8.6h-9.4c-7.5,0-12.5-5-12.5-12.5v-24.1h-9.5v-8.6h9.5v-13.7h9.6v13.8h13.7v8.6h-13.7v-.1Z" fill="currentColor" stroke-width="0"/>
  <path d="M1034.78,266.2v27.7h-9.6v-27.1c0-6.8-3.8-10.2-9.9-10.2-7.6,0-12.5,5.6-12.5,16.1v21.2h-9.6v-65.8h9.6v31.6c2.2-7.2,7-11.8,15.8-11.8,10.6-.1,16.2,6.3,16.2,18.3Z" fill="currentColor" stroke-width="0"/>
  <path d="M1086.48,274.4h-33.7c.7,9.1,4.5,12.7,13,12.7,6.3,0,9-1.6,11.1-7l8.7,3.2c-3.2,7.9-10.6,11.7-19.8,11.7-13.7,0-22.7-9.2-22.7-23.4s9.2-23.6,22.2-23.6,21.3,8.7,21.3,22.6c0,1.2,0,2-.1,3.8ZM1052.88,267.3h24.1c-.4-8.6-3.9-11.9-11.7-11.9s-11.5,3.7-12.4,11.9Z" fill="currentColor" stroke-width="0"/>
  <path d="M1160.18,228.1v65.8h-9.6v-9.5c-2.8,6.5-9.3,10.7-16.4,10.4-13,0-21-9.4-21-23.5s8-23.5,20.8-23.5c7.2-.3,13.8,3.9,16.6,10.5v-30.3h9.6v.1ZM1150.88,271.3c0-10.1-4.5-14.8-14.1-14.8s-14,4.7-14,14.8,4.5,14.8,14,14.8,14.1-4.7,14.1-14.8Z" fill="currentColor" stroke-width="0"/>
  <path d="M1170.18,233c-.1-4,2.3-6.2,6.6-6.2s6.5,2.2,6.6,6.2-2.2,6.5-6.6,6.5c-4.1,0-6.5-2.4-6.6-6.5ZM1171.88,248.8h9.6v45.1h-9.6v-45.1Z" fill="currentColor" stroke-width="0"/>
  <path d="M1235.08,248.8v41.2c0,12.7-8.6,20.8-22.8,20.8-11.5,0-19.3-4.1-22.1-12.5l9.2-3.9c2.2,6.8,5.3,8.5,13.2,8.5,8.9,0,13-3.7,13-11.7v-9.1c-3,6-8.5,9.6-15.9,9.6-11.8,0-19.8-8.9-19.8-21.9s7.9-21.9,19.7-21.9c6.8-.3,13.2,3.6,16,9.9v-8.9h9.5v-.1ZM1226.08,269.8c0-9.1-4.2-13.4-13.2-13.4s-13.2,4.3-13.2,13.4,4.2,13.3,13.2,13.3,13.2-4.2,13.2-13.3h0Z" fill="currentColor" stroke-width="0"/>
  <path d="M1245.08,233c-.1-4,2.3-6.2,6.6-6.2s6.5,2.2,6.6,6.2-2.2,6.5-6.6,6.5-6.5-2.4-6.6-6.5ZM1246.78,248.8h9.6v45.1h-9.6v-45.1Z" fill="currentColor" stroke-width="0"/>
  <path d="M1281.48,257.3v28h12.3v8.6h-9.4c-7.5,0-12.5-5-12.5-12.5v-24.1h-9.5v-8.6h9.5v-13.7h9.6v13.8h13.7v8.6h-13.7v-.1Z" fill="currentColor" stroke-width="0"/>
  <path d="M1339.88,264.2v29.7h-9.5v-10c-2.4,7.3-8,11-15.8,11-9.1,0-14.8-4.7-14.8-12.6,0-9.7,8.7-14.4,23.8-14.4h6.8v-3.6c0-5.6-3.1-8.4-9.6-8.4-5.7,0-10.2,3-10.1,10.3l-9.1-1.9c.2-10,7.8-16.5,19.4-16.5,11.9,0,18.9,6.1,18.9,16.4ZM1330.38,274h-6.3c-8.5,0-14.5,2.5-14.5,7.6,0,3.8,2.6,6.1,7.9,6.1,6.8,0,12.9-4.6,12.9-13.7h0Z" fill="currentColor" stroke-width="0"/>
  <path d="M1351.18,228.1h9.6v65.8h-9.6v-65.8Z" fill="currentColor" stroke-width="0"/>
  <path d="M1421.88,257.3h-13.9v36.6h-9.6v-36.6h-9.6v-8.6h9.6v-9.4c0-7.5,5-12.5,12.5-12.5h10.4v8.5h-13.3v13.4h13.9v8.6Z" fill="currentColor" stroke-width="0"/>
  <path d="M1464.88,264.2v29.7h-9.5v-10c-2.4,7.3-8,11-15.8,11-9.1,0-14.8-4.7-14.8-12.6,0-9.7,8.7-14.4,23.8-14.4h6.8v-3.6c0-5.6-3.1-8.4-9.6-8.4-5.7,0-10.2,3-10.1,10.3l-9.1-1.9c.2-10,7.8-16.5,19.4-16.5,11.9,0,18.9,6.1,18.9,16.4ZM1455.38,274h-6.3c-8.5,0-14.5,2.5-14.5,7.6,0,3.8,2.6,6.1,7.9,6.1,6.8,0,12.9-4.6,12.9-13.7h0Z" fill="currentColor" stroke-width="0"/>
  <path d="M1549.68,266.6v27.3h-9.6v-26.7c0-7-3.7-10.6-9.8-10.6-8.6,0-12.6,6.4-12.6,18.4v18.9h-9.6v-27.1c0-6.8-3.8-10.2-9.9-10.2-7.6,0-12.5,5.6-12.5,16.1v21.2h-9.6v-45.1h9.6v10.9c2.2-7.2,7-11.8,15.8-11.8s13.9,4.2,15.6,12.1c2.6-7.9,8.1-12.1,16.3-12.1,10.8-.1,16.3,6.5,16.3,18.7Z" fill="currentColor" stroke-width="0"/>
  <path d="M1559.28,233c-.1-4,2.3-6.2,6.6-6.2s6.5,2.2,6.6,6.2-2.3,6.5-6.6,6.5-6.5-2.4-6.6-6.5ZM1560.98,248.8h9.6v45.1h-9.6v-45.1Z" fill="currentColor" stroke-width="0"/>
  <path d="M1582.08,228.1h9.6v65.8h-9.6v-65.8Z" fill="currentColor" stroke-width="0"/>
  <path d="M1644.08,248.8v42.7c0,11.7-8.9,19.4-22.4,19.4-10.2,0-18.5-4.9-21.2-13.1l9.4-4c1.6,6.5,5,9.1,12,9.1,10.1,0,12.5-3.9,12.5-12.1v-10.7c-1.9,7.4-6.1,12.2-15.1,12.2-10.6,0-16.8-6.3-16.8-18.3v-25.2h9.6v24.2c0,7,4,10.6,10,10.6,7.6,0,12.4-5.7,12.4-16.2v-18.7h9.6v.1Z" fill="currentColor" stroke-width="0"/>
  <path d="M255.68,69.2c-.6,0-60.1,5.1-60.1,5.1-8.4.7-13-5.2-10.2-13.1,0,0,10.4-31.3,10.4-34.9,0-14.5-11.8-26.3-26.4-26.3-8.6,0-16.6,4.2-21.5,11.2h0c-.3.5-21.1,27.9-21.1,27.9-5.1,6.7-15.6,9.5-23.3,6.2l-51.3-21.8c-4.9-2.1-9.8-3.7-15.4-3.7C18.38,19.8,3.48,34.7,3.48,53.1c0,16.9,11.3,29.2,28.8,33l45.8,9.2c6.2,1.2,6.5,4.3.7,6.8,0,0-35,15.1-35.2,15.2C4.88,136.4-11.02,183.3,8.08,222.1c19.1,38.8,66,54.7,104.8,35.6,26.8-13.2,43.7-40.4,43.7-70.3v-50c0-12.6,7.9-16.2,17.5-8l45.2,38.5h0c23.6,20.1,59,17.3,79.1-6.3s17.3-59-6.3-79.1c-10.2-8.5-23.1-13.3-36.4-13.3Z" fill="currentColor" stroke-width="0"/>
</svg>
</svg>
