<?xml version="1.0" encoding="UTF-8"?>
<svg xmlns="http://www.w3.org/2000/svg" xmlns:xlink="http://www.w3.org/1999/xlink" width="224px" height="33px" viewBox="157 454 224 33" version="1.1">
  <desc>Created with Sketch.</desc>
  <defs></defs>
  <polygon id="Fill-5" stroke="none" fill="#ffffff" fill-rule="evenodd" points="243.026 485.942 245.299 485.942 245.299 455.926 243.026 455.926"></polygon>
  <polyline id="Fill-6" stroke="none" fill="#ffffff" fill-rule="evenodd" points="257.401 455.926 277.598 480.754 277.598 455.926 279.869 455.926 279.869 485.942 278.969 485.942 258.729 461.157 258.729 485.942 256.415 485.942 256.415 455.926 257.401 455.926"></polyline>
  <path d="M314.64,461.457 C312.023,458.885 308.379,457.598 304.991,457.598 C296.201,457.598 291.699,464.031 291.741,470.977 C291.741,478.052 296.243,484.141 304.991,484.141 C308.208,484.141 311.553,483.027 314.125,480.668 L314.125,472.264 L303.662,472.264 L303.662,470.248 L316.311,470.248 L316.311,481.483 C313.182,484.613 309.451,486.328 304.991,486.328 C294.785,486.328 289.512,479.21 289.512,471.02 C289.47,461.629 295.858,455.497 304.991,455.497 C308.937,455.497 312.924,456.998 315.968,460 L314.64,461.457" id="Fill-7" stroke="none" fill="#ffffff" fill-rule="evenodd"></path>
  <path d="M326.956,458.113 L347.667,458.113 L347.667,455.926 L326.956,455.926 L326.956,458.113 Z M326.956,471.877 L346.81,471.877 L346.81,469.777 L326.956,469.777 L326.956,471.877 Z M326.956,485.942 L348.183,485.942 L348.183,483.712 L326.956,483.712 L326.956,485.942 Z" id="Fill-8" stroke="none" fill="#ffffff" fill-rule="evenodd"></path>
  <path d="M223.961,474.45 C230.521,474.45 233.737,470.162 233.693,465.274 C233.651,460.6 230.35,455.926 223.831,455.926 L210.625,455.926 L210.625,485.942 L212.94,485.942 L212.94,458.07 L223.831,458.07 C228.807,458.07 231.207,461.715 231.165,465.231 C231.12,469.433 228.807,472.392 223.574,472.392 L221.185,472.392 L221.185,474.638 L231.508,485.942 L234.552,485.942 L223.961,474.45" id="Fill-9" stroke="none" fill="#ffffff" fill-rule="evenodd"></path>
  <path d="M182.673817,482.045174 L176.133841,473.445506 L176.505679,473.445506 C178.77377,473.445506 180.436105,472.800258 181.492077,471.507938 C182.546833,470.217441 183.074819,468.740417 183.074819,467.078082 C183.074819,462.81045 180.358335,460.677242 174.921114,460.677242 L167.941251,460.677242 C167.380456,460.677242 167.004365,460.789644 166.813585,461.013233 C166.62159,461.238037 166.526808,461.653621 166.526808,462.259984 L166.526808,482.88424 C162.409856,480.362789 159.654487,475.823569 159.654487,470.651252 C159.654487,462.74787 166.085099,456.317258 173.989696,456.317258 C181.893079,456.317258 188.324298,462.74787 188.324298,470.651252 C188.324298,475.291938 186.105421,479.422864 182.673817,482.045174 L182.673817,482.045174 Z M173.989696,454.642164 C165.161579,454.642164 157.98,461.823743 157.98,470.651252 C157.98,477.441551 162.232443,483.25547 168.212231,485.578243 L168.212231,462.362057 L174.887697,462.362057 C179.222163,462.362057 181.390611,463.9448 181.390611,467.111499 C181.390611,468.145598 181.07467,469.145065 180.447042,470.111115 C180.132923,470.604469 179.638354,471.008508 178.965157,471.323234 C178.291353,471.637352 177.482666,471.794108 176.538488,471.794108 L175.055997,471.794108 C174.269182,471.794108 173.877902,472.154402 173.877902,472.87256 C173.877902,473.097971 174.000633,473.389609 174.247917,473.748688 L181.271526,482.991174 L182.29165,484.329062 C186.908032,481.517188 190,476.439654 190,470.651252 C190,461.823743 182.816598,454.642164 173.989696,454.642164 L173.989696,454.642164 Z" id="Fill-10" stroke="none" fill="#ffffff" fill-rule="evenodd"></path>
  <path d="M370.113,474.45 C376.674,474.45 379.89,470.162 379.846,465.274 C379.804,460.6 376.502,455.926 369.983,455.926 L356.777,455.926 L356.777,485.942 L359.093,485.942 L359.093,458.07 L369.983,458.07 C374.959,458.07 377.359,461.715 377.317,465.231 C377.272,469.433 374.959,472.392 369.727,472.392 L367.337,472.392 L367.337,474.638 L377.66,485.942 L380.704,485.942 L370.113,474.45" id="Fill-11" stroke="none" fill="#ffffff" fill-rule="evenodd"></path>
</svg>
