<?xml version="1.0" encoding="UTF-8"?>
<svg xmlns="http://www.w3.org/2000/svg" id="Ebene_1" data-name="Ebene 1" viewBox="0 0 400 400">
  <path d="M0,400V0h400v400H0ZM124.76,323.44c.08,0,.15,0,.23,0,0-4.46-.05-8.92.03-13.37.03-1.44-.46-1.82-1.84-1.8-4.46.07-8.92.07-13.37,0-1.32-.02-1.76.38-1.74,1.73.06,5.87.04,11.74.02,17.61,0,2.99.01,5.98-.1,8.97-.08,2.23-1.07,3.41-2.91,3.82-3.62.81-5.67-.78-5.81-4.52-.03-.73-.03-1.47-.03-2.2,0-7.84-.04-15.69.03-23.53.02-1.53-.48-1.92-1.93-1.88-3.38.09-6.77.03-10.16.03-4.85,0-4.87,0-4.84,4.84.06,8.57-.15,17.17.32,25.72.4,7.23,4.4,12.3,11.35,14.72,4.95,1.72,10.08,1.81,15.21,1.04,9.06-1.36,14.63-6.9,15.43-15.95.45-5.03.08-10.14.08-15.22h0ZM63.09,354.24v-16.02h11.99v-12.12h-11.91v-4.5h13.63v-13.17c-.4-.06-.67-.13-.94-.13-9.48,0-18.96.02-28.43-.03-1.53,0-1.38.88-1.38,1.87,0,14.1,0,28.21,0,42.31,0,.59.07,1.18.1,1.79h16.94ZM167.43,308.29v45.88h30.69c0-4.69.03-9.25-.06-13.81,0-.34-.86-.93-1.33-.94-2.82-.09-5.64-.05-8.46-.05-1.33,0-2.66,0-4.13,0,0-3.16,0-6.04,0-8.91,0-6.83-.03-13.66.03-20.48.01-1.34-.42-1.79-1.74-1.72-1.8.09-3.61.02-5.42.02-3.15,0-6.3,0-9.57,0h0ZM149,339.41c0-.85,0-1.46,0-2.07,0-9.09-.03-18.17.03-27.26,0-1.42-.43-1.84-1.83-1.82-4.4.07-8.81.08-13.21,0-1.45-.03-1.94.35-1.93,1.88.06,14.11.06,28.22,0,42.33,0,1.53.46,1.88,1.92,1.87,9.03-.06,18.06-.03,27.09-.04.59,0,1.19-.06,1.73-.09v-14.81h-13.8ZM236.02,354.23c0-.89,0-1.61,0-2.34,0-13.15,0-26.3,0-39.45,0-4.26,0-4.22-4.34-4.19-1.25,0-1.67.39-1.65,1.65.06,4.91.02,9.82.02,14.73,0,.66,0,1.31,0,2.03h-21.63v-18.38c-1.47,0-2.76.09-4.03-.02-1.54-.14-1.88.49-1.87,1.94.05,14.05.03,28.1.03,42.16,0,.6.06,1.2.1,1.81h5.84v-21.73h21.63v21.79h5.9ZM291.97,324.23s-.06,0-.09,0c0-3.95,0-7.9,0-11.85s0-4.06-4.08-4.12c-1.47-.02-1.94.39-1.93,1.9.07,8.92,0,17.83.06,26.75.01,1.85.21,3.73.6,5.53,1.58,7.35,6.97,11.99,14.7,12.8,7.21.76,14-2.86,16.61-9.39,1.12-2.81,1.68-5.99,1.77-9.03.24-8.18.08-16.36.08-24.55,0-4.01,0-3.94-4.01-4.02-1.58-.03-2,.47-1.98,2.01.07,8.18.07,16.37,0,24.55-.01,2.08-.15,4.18-.53,6.22-.64,3.4-2.19,6.29-5.57,7.79-6.71,2.98-13.4-.28-15.13-7.37-.28-1.14-.48-2.33-.5-3.51-.06-4.57-.02-9.14-.02-13.71h0ZM239.13,354.32c1.81,0,3.28-.08,4.73.02,1.18.08,1.81-.32,2.29-1.43,1.27-3.01,2.7-5.95,4.02-8.94.36-.81.76-1.19,1.74-1.19,6.15.05,12.3.05,18.45,0,.94,0,1.4.3,1.77,1.14,1.35,3.1,2.76,6.17,4.2,9.23.21.45.68,1.07,1.06,1.09,1.82.11,3.65.05,5.78.05-7.38-16.1-14.6-31.87-22.02-48.06-7.43,16.21-14.64,31.96-22.02,48.07h0ZM330.73,341.09c-1.44.3-2.8.72-4.18.85-1.59.15-1.61.94-1.29,2.17,2.03,7.95,9.2,12.46,17.28,10.83,5.68-1.14,10.17-5.67,11.1-11.19,1.1-6.49-1.06-11.36-6.7-14.56-2.19-1.24-4.62-2.06-6.91-3.13-1.63-.76-3.34-1.44-4.77-2.49-3.19-2.35-3.1-6.47.03-8.93,3.61-2.84,8.91-2.17,11.75,1.46.27.34.56.66.88,1.04,1.56-.94,3.02-1.83,4.47-2.7-3.76-7.42-13.82-9.39-20.75-4.27-6.13,4.53-6.23,13.29-.06,17.75,1.89,1.37,4.12,2.3,6.22,3.36,2.11,1.06,4.37,1.87,6.37,3.09,3.5,2.14,4.62,5.51,3.41,9.35-1.15,3.64-4.25,6.01-7.9,6.04-3.92.03-7.36-2.46-8.41-6.11-.23-.8-.34-1.63-.53-2.57h0Z" fill="currentColor" stroke-width="0"></path>
  <path d="M269.09,337.3h-15.87c2.62-5.99,5.18-11.81,7.92-18.07,2.72,6.17,5.27,11.98,7.95,18.07Z" fill="currentColor" stroke-width="0"></path>
</svg>
