<?xml version="1.0" encoding="UTF-8"?>
<svg xmlns="http://www.w3.org/2000/svg" id="Layer_17" data-name="Layer 17" viewBox="0 0 659.46 149.77">
  <path d="M351.97,85.82s20.88-27.22,21.25-37.62c.43-12-5.09-20.33-17.38-20.33s-18.77,9.13-18.77,22.5c.11,3.58.48,7.14,1.11,10.66h-30.29c-1.02-4.08-1.55-8.27-1.56-12.48,0-24.27,17.66-48.55,50-48.55,29.4.03,47.13,20.08,47.13,47.03,0,22-15,38.57-29.83,57.52l-15,19.36h49v25.8h-104.84l49.18-63.89Z" fill="currentColor" stroke-width="0"></path>
  <path d="M30.1,149.71H0V2.71h30.1v147Z" fill="currentColor" stroke-width="0"></path>
  <polygon points="24.24 76.25 81.23 2.75 117.09 2.75 60.74 76.25 117.09 149.75 81.23 149.75 24.24 76.25" fill="currentColor" stroke-width="0"></polygon>
  <path d="M524.35,149.77h-35.89l56.33-73.51L488.46,2.71h35.85l57,73.53-56.96,73.53Z" fill="currentColor" stroke-width="0"></path>
  <path d="M602.46,149.77h-35.86l56.32-73.51L566.6,2.71h35.86l57,73.53-57,73.53Z" fill="currentColor" stroke-width="0"></path>
  <polygon points="251.81 68.95 251.81 149.75 281.88 149.75 281.88 2.75 266.93 2.75 209.92 76.21 152.95 2.75 138 2.75 138 149.75 168.07 149.75 168.07 68.99 209.94 123.39 251.81 68.95" fill="currentColor" stroke-width="0"></polygon>
</svg>
